<svg xmlns="http://www.w3.org/2000/svg" xmlns:xlink="http://www.w3.org/1999/xlink" width="6912" zoomAndPan="magnify" viewBox="0 0 5184 2592.000001" height="3456" preserveAspectRatio="xMidYMid meet" version="1.0"><defs><g/><clipPath id="e29980ad09"><path d="M 1 0 L 5183 0 L 5183 1192.707031 L 1 1192.707031 Z M 1 0 " clip-rule="nonzero"/></clipPath><clipPath id="89cdc61dee"><path d="M 1 0 L 386.726562 0 L 386.726562 4.746094 L 1 4.746094 Z M 1 0 " clip-rule="nonzero"/></clipPath><clipPath id="382aceb12a"><path d="M 1 48.167969 L 386.726562 48.167969 L 386.726562 62.28125 L 1 62.28125 Z M 1 48.167969 " clip-rule="nonzero"/></clipPath><clipPath id="35ea8712cf"><path d="M 1 106 L 386.726562 106 L 386.726562 119.820312 L 1 119.820312 Z M 1 106 " clip-rule="nonzero"/></clipPath><clipPath id="7cec19cffd"><path d="M 1 163.246094 L 386.726562 163.246094 L 386.726562 177.359375 L 1 177.359375 Z M 1 163.246094 " clip-rule="nonzero"/></clipPath><clipPath id="9f023fb1c5"><path d="M 1 221 L 386.726562 221 L 386.726562 234.894531 L 1 234.894531 Z M 1 221 " clip-rule="nonzero"/></clipPath><clipPath id="85aee2b421"><path d="M 1 278.320312 L 386.726562 278.320312 L 386.726562 292.433594 L 1 292.433594 Z M 1 278.320312 " clip-rule="nonzero"/></clipPath><clipPath id="59166b3bc5"><path d="M 1 336 L 386.726562 336 L 386.726562 349.96875 L 1 349.96875 Z M 1 336 " clip-rule="nonzero"/></clipPath><clipPath id="f2b26a8a57"><path d="M 1 393.394531 L 386.726562 393.394531 L 386.726562 408 L 1 408 Z M 1 393.394531 " clip-rule="nonzero"/></clipPath><clipPath id="a4a671ccb8"><path d="M 1 451 L 386.726562 451 L 386.726562 466 L 1 466 Z M 1 451 " clip-rule="nonzero"/></clipPath><clipPath id="ecc29a2873"><path d="M 1 509 L 386.726562 509 L 386.726562 523 L 1 523 Z M 1 509 " clip-rule="nonzero"/></clipPath><clipPath id="01517cc76c"><path d="M 379.878906 0 L 1025.867188 0 L 1025.867188 4.746094 L 379.878906 4.746094 Z M 379.878906 0 " clip-rule="nonzero"/></clipPath><clipPath id="205d89ce0d"><path d="M 379.878906 48.167969 L 1025.867188 48.167969 L 1025.867188 62.28125 L 379.878906 62.28125 Z M 379.878906 48.167969 " clip-rule="nonzero"/></clipPath><clipPath id="27f5bee8b6"><path d="M 379.878906 106 L 1025.867188 106 L 1025.867188 119.820312 L 379.878906 119.820312 Z M 379.878906 106 " clip-rule="nonzero"/></clipPath><clipPath id="8f3978af0b"><path d="M 379.878906 163.246094 L 1025.867188 163.246094 L 1025.867188 177.359375 L 379.878906 177.359375 Z M 379.878906 163.246094 " clip-rule="nonzero"/></clipPath><clipPath id="cdfa9a75b4"><path d="M 379.878906 221 L 1025.867188 221 L 1025.867188 234.894531 L 379.878906 234.894531 Z M 379.878906 221 " clip-rule="nonzero"/></clipPath><clipPath id="afa207dd43"><path d="M 379.878906 278.320312 L 1025.867188 278.320312 L 1025.867188 292.433594 L 379.878906 292.433594 Z M 379.878906 278.320312 " clip-rule="nonzero"/></clipPath><clipPath id="3b3c5412f4"><path d="M 379.878906 336 L 1025.867188 336 L 1025.867188 349.96875 L 379.878906 349.96875 Z M 379.878906 336 " clip-rule="nonzero"/></clipPath><clipPath id="4292badce3"><path d="M 379.878906 393.394531 L 1025.867188 393.394531 L 1025.867188 408 L 379.878906 408 Z M 379.878906 393.394531 " clip-rule="nonzero"/></clipPath><clipPath id="5304bd0499"><path d="M 379.878906 451 L 1025.867188 451 L 1025.867188 466 L 379.878906 466 Z M 379.878906 451 " clip-rule="nonzero"/></clipPath><clipPath id="75e4065c20"><path d="M 379.878906 509 L 1025.867188 509 L 1025.867188 523 L 379.878906 523 Z M 379.878906 509 " clip-rule="nonzero"/></clipPath><clipPath id="d90aa2d450"><path d="M 999.421875 0 L 1645.410156 0 L 1645.410156 4.746094 L 999.421875 4.746094 Z M 999.421875 0 " clip-rule="nonzero"/></clipPath><clipPath id="2bfea58670"><path d="M 999.421875 48.167969 L 1645.410156 48.167969 L 1645.410156 62.28125 L 999.421875 62.28125 Z M 999.421875 48.167969 " clip-rule="nonzero"/></clipPath><clipPath id="cdcbd601fe"><path d="M 999.421875 106 L 1645.410156 106 L 1645.410156 119.820312 L 999.421875 119.820312 Z M 999.421875 106 " clip-rule="nonzero"/></clipPath><clipPath id="31de1d50ca"><path d="M 999.421875 163.246094 L 1645.410156 163.246094 L 1645.410156 177.359375 L 999.421875 177.359375 Z M 999.421875 163.246094 " clip-rule="nonzero"/></clipPath><clipPath id="636ce40ef7"><path d="M 999.421875 221 L 1645.410156 221 L 1645.410156 234.894531 L 999.421875 234.894531 Z M 999.421875 221 " clip-rule="nonzero"/></clipPath><clipPath id="a490d1d815"><path d="M 999.421875 278.320312 L 1645.410156 278.320312 L 1645.410156 292.433594 L 999.421875 292.433594 Z M 999.421875 278.320312 " clip-rule="nonzero"/></clipPath><clipPath id="b50ef0ef43"><path d="M 999.421875 336 L 1645.410156 336 L 1645.410156 349.96875 L 999.421875 349.96875 Z M 999.421875 336 " clip-rule="nonzero"/></clipPath><clipPath id="9c23af8cb2"><path d="M 999.421875 393.394531 L 1645.410156 393.394531 L 1645.410156 408 L 999.421875 408 Z M 999.421875 393.394531 " clip-rule="nonzero"/></clipPath><clipPath id="8656174aed"><path d="M 999.421875 451 L 1645.410156 451 L 1645.410156 466 L 999.421875 466 Z M 999.421875 451 " clip-rule="nonzero"/></clipPath><clipPath id="39af42db9e"><path d="M 999.421875 509 L 1645.410156 509 L 1645.410156 523 L 999.421875 523 Z M 999.421875 509 " clip-rule="nonzero"/></clipPath><clipPath id="9e69f42198"><path d="M 1633.570312 0 L 2279.5625 0 L 2279.5625 4.746094 L 1633.570312 4.746094 Z M 1633.570312 0 " clip-rule="nonzero"/></clipPath><clipPath id="0338b00d65"><path d="M 1633.570312 48.167969 L 2279.5625 48.167969 L 2279.5625 62.28125 L 1633.570312 62.28125 Z M 1633.570312 48.167969 " clip-rule="nonzero"/></clipPath><clipPath id="5f9e14f536"><path d="M 1633.570312 106 L 2279.5625 106 L 2279.5625 119.820312 L 1633.570312 119.820312 Z M 1633.570312 106 " clip-rule="nonzero"/></clipPath><clipPath id="841301b26d"><path d="M 1633.570312 163.246094 L 2279.5625 163.246094 L 2279.5625 177.359375 L 1633.570312 177.359375 Z M 1633.570312 163.246094 " clip-rule="nonzero"/></clipPath><clipPath id="fe266940b8"><path d="M 1633.570312 221 L 2279.5625 221 L 2279.5625 234.894531 L 1633.570312 234.894531 Z M 1633.570312 221 " clip-rule="nonzero"/></clipPath><clipPath id="d6459de381"><path d="M 1633.570312 278.320312 L 2279.5625 278.320312 L 2279.5625 292.433594 L 1633.570312 292.433594 Z M 1633.570312 278.320312 " clip-rule="nonzero"/></clipPath><clipPath id="1cf428eaea"><path d="M 1633.570312 336 L 2279.5625 336 L 2279.5625 349.96875 L 1633.570312 349.96875 Z M 1633.570312 336 " clip-rule="nonzero"/></clipPath><clipPath id="54754d7eb0"><path d="M 1633.570312 393.394531 L 2279.5625 393.394531 L 2279.5625 408 L 1633.570312 408 Z M 1633.570312 393.394531 " clip-rule="nonzero"/></clipPath><clipPath id="a1fb9004d7"><path d="M 1633.570312 451 L 2279.5625 451 L 2279.5625 466 L 1633.570312 466 Z M 1633.570312 451 " clip-rule="nonzero"/></clipPath><clipPath id="49a02594d4"><path d="M 1633.570312 509 L 2279.5625 509 L 2279.5625 523 L 1633.570312 523 Z M 1633.570312 509 " clip-rule="nonzero"/></clipPath><clipPath id="65b01b849f"><path d="M 2272.714844 0 L 2918.703125 0 L 2918.703125 4.746094 L 2272.714844 4.746094 Z M 2272.714844 0 " clip-rule="nonzero"/></clipPath><clipPath id="6559114d62"><path d="M 2272.714844 48.167969 L 2918.703125 48.167969 L 2918.703125 62.28125 L 2272.714844 62.28125 Z M 2272.714844 48.167969 " clip-rule="nonzero"/></clipPath><clipPath id="cd835e937d"><path d="M 2272.714844 106 L 2918.703125 106 L 2918.703125 119.820312 L 2272.714844 119.820312 Z M 2272.714844 106 " clip-rule="nonzero"/></clipPath><clipPath id="b7e9d8c987"><path d="M 2272.714844 163.246094 L 2918.703125 163.246094 L 2918.703125 177.359375 L 2272.714844 177.359375 Z M 2272.714844 163.246094 " clip-rule="nonzero"/></clipPath><clipPath id="62d22744b1"><path d="M 2272.714844 221 L 2918.703125 221 L 2918.703125 234.894531 L 2272.714844 234.894531 Z M 2272.714844 221 " clip-rule="nonzero"/></clipPath><clipPath id="933e3011ee"><path d="M 2272.714844 278.320312 L 2918.703125 278.320312 L 2918.703125 292.433594 L 2272.714844 292.433594 Z M 2272.714844 278.320312 " clip-rule="nonzero"/></clipPath><clipPath id="ac7e1120e7"><path d="M 2272.714844 336 L 2918.703125 336 L 2918.703125 349.96875 L 2272.714844 349.96875 Z M 2272.714844 336 " clip-rule="nonzero"/></clipPath><clipPath id="7e53362c92"><path d="M 2272.714844 393.394531 L 2918.703125 393.394531 L 2918.703125 408 L 2272.714844 408 Z M 2272.714844 393.394531 " clip-rule="nonzero"/></clipPath><clipPath id="5e405faa6b"><path d="M 2272.714844 451 L 2918.703125 451 L 2918.703125 466 L 2272.714844 466 Z M 2272.714844 451 " clip-rule="nonzero"/></clipPath><clipPath id="72a0edce8e"><path d="M 2272.714844 509 L 2918.703125 509 L 2918.703125 523 L 2272.714844 523 Z M 2272.714844 509 " clip-rule="nonzero"/></clipPath><clipPath id="b6a14d6f00"><path d="M 2892.257812 0 L 3538.246094 0 L 3538.246094 4.746094 L 2892.257812 4.746094 Z M 2892.257812 0 " clip-rule="nonzero"/></clipPath><clipPath id="06bdd157a7"><path d="M 2892.257812 48.167969 L 3538.246094 48.167969 L 3538.246094 62.28125 L 2892.257812 62.28125 Z M 2892.257812 48.167969 " clip-rule="nonzero"/></clipPath><clipPath id="ebf311327e"><path d="M 2892.257812 106 L 3538.246094 106 L 3538.246094 119.820312 L 2892.257812 119.820312 Z M 2892.257812 106 " clip-rule="nonzero"/></clipPath><clipPath id="4990331a16"><path d="M 2892.257812 163.246094 L 3538.246094 163.246094 L 3538.246094 177.359375 L 2892.257812 177.359375 Z M 2892.257812 163.246094 " clip-rule="nonzero"/></clipPath><clipPath id="0db3b69bed"><path d="M 2892.257812 221 L 3538.246094 221 L 3538.246094 234.894531 L 2892.257812 234.894531 Z M 2892.257812 221 " clip-rule="nonzero"/></clipPath><clipPath id="5c55f3aab7"><path d="M 2892.257812 278.320312 L 3538.246094 278.320312 L 3538.246094 292.433594 L 2892.257812 292.433594 Z M 2892.257812 278.320312 " clip-rule="nonzero"/></clipPath><clipPath id="b3e54d154f"><path d="M 2892.257812 336 L 3538.246094 336 L 3538.246094 349.96875 L 2892.257812 349.96875 Z M 2892.257812 336 " clip-rule="nonzero"/></clipPath><clipPath id="15f479308a"><path d="M 2892.257812 393.394531 L 3538.246094 393.394531 L 3538.246094 408 L 2892.257812 408 Z M 2892.257812 393.394531 " clip-rule="nonzero"/></clipPath><clipPath id="bf53ae0e3d"><path d="M 2892.257812 451 L 3538.246094 451 L 3538.246094 466 L 2892.257812 466 Z M 2892.257812 451 " clip-rule="nonzero"/></clipPath><clipPath id="07f98bd1d1"><path d="M 2892.257812 509 L 3538.246094 509 L 3538.246094 523 L 2892.257812 523 Z M 2892.257812 509 " clip-rule="nonzero"/></clipPath><clipPath id="15507a8f22"><path d="M 3538.417969 0 L 4184.40625 0 L 4184.40625 4.746094 L 3538.417969 4.746094 Z M 3538.417969 0 " clip-rule="nonzero"/></clipPath><clipPath id="5111ebbc31"><path d="M 3538.417969 48.167969 L 4184.40625 48.167969 L 4184.40625 62.28125 L 3538.417969 62.28125 Z M 3538.417969 48.167969 " clip-rule="nonzero"/></clipPath><clipPath id="bf19a1fb30"><path d="M 3538.417969 106 L 4184.40625 106 L 4184.40625 119.820312 L 3538.417969 119.820312 Z M 3538.417969 106 " clip-rule="nonzero"/></clipPath><clipPath id="e06e95f303"><path d="M 3538.417969 163.246094 L 4184.40625 163.246094 L 4184.40625 177.359375 L 3538.417969 177.359375 Z M 3538.417969 163.246094 " clip-rule="nonzero"/></clipPath><clipPath id="e3d2d97c2c"><path d="M 3538.417969 221 L 4184.40625 221 L 4184.40625 234.894531 L 3538.417969 234.894531 Z M 3538.417969 221 " clip-rule="nonzero"/></clipPath><clipPath id="5c6b4df5f3"><path d="M 3538.417969 278.320312 L 4184.40625 278.320312 L 4184.40625 292.433594 L 3538.417969 292.433594 Z M 3538.417969 278.320312 " clip-rule="nonzero"/></clipPath><clipPath id="414d417817"><path d="M 3538.417969 336 L 4184.40625 336 L 4184.40625 349.96875 L 3538.417969 349.96875 Z M 3538.417969 336 " clip-rule="nonzero"/></clipPath><clipPath id="0041afcdf1"><path d="M 3538.417969 393.394531 L 4184.40625 393.394531 L 4184.40625 408 L 3538.417969 408 Z M 3538.417969 393.394531 " clip-rule="nonzero"/></clipPath><clipPath id="6dd05b853f"><path d="M 3538.417969 451 L 4184.40625 451 L 4184.40625 466 L 3538.417969 466 Z M 3538.417969 451 " clip-rule="nonzero"/></clipPath><clipPath id="32e8991e9a"><path d="M 3538.417969 509 L 4184.40625 509 L 4184.40625 523 L 3538.417969 523 Z M 3538.417969 509 " clip-rule="nonzero"/></clipPath><clipPath id="486db371a0"><path d="M 4177.558594 0 L 4823.546875 0 L 4823.546875 4.746094 L 4177.558594 4.746094 Z M 4177.558594 0 " clip-rule="nonzero"/></clipPath><clipPath id="e010990b74"><path d="M 4177.558594 48.167969 L 4823.546875 48.167969 L 4823.546875 62.28125 L 4177.558594 62.28125 Z M 4177.558594 48.167969 " clip-rule="nonzero"/></clipPath><clipPath id="ab27e0c4eb"><path d="M 4177.558594 106 L 4823.546875 106 L 4823.546875 119.820312 L 4177.558594 119.820312 Z M 4177.558594 106 " clip-rule="nonzero"/></clipPath><clipPath id="e7783ba22b"><path d="M 4177.558594 163.246094 L 4823.546875 163.246094 L 4823.546875 177.359375 L 4177.558594 177.359375 Z M 4177.558594 163.246094 " clip-rule="nonzero"/></clipPath><clipPath id="234ffb6cee"><path d="M 4177.558594 221 L 4823.546875 221 L 4823.546875 234.894531 L 4177.558594 234.894531 Z M 4177.558594 221 " clip-rule="nonzero"/></clipPath><clipPath id="f0f1c84482"><path d="M 4177.558594 278.320312 L 4823.546875 278.320312 L 4823.546875 292.433594 L 4177.558594 292.433594 Z M 4177.558594 278.320312 " clip-rule="nonzero"/></clipPath><clipPath id="647739047a"><path d="M 4177.558594 336 L 4823.546875 336 L 4823.546875 349.96875 L 4177.558594 349.96875 Z M 4177.558594 336 " clip-rule="nonzero"/></clipPath><clipPath id="bc657e8c65"><path d="M 4177.558594 393.394531 L 4823.546875 393.394531 L 4823.546875 408 L 4177.558594 408 Z M 4177.558594 393.394531 " clip-rule="nonzero"/></clipPath><clipPath id="4c332e9c3f"><path d="M 4177.558594 451 L 4823.546875 451 L 4823.546875 466 L 4177.558594 466 Z M 4177.558594 451 " clip-rule="nonzero"/></clipPath><clipPath id="141b50c521"><path d="M 4177.558594 509 L 4823.546875 509 L 4823.546875 523 L 4177.558594 523 Z M 4177.558594 509 " clip-rule="nonzero"/></clipPath><clipPath id="61849252ee"><path d="M 4797.101562 0 L 5183 0 L 5183 4.746094 L 4797.101562 4.746094 Z M 4797.101562 0 " clip-rule="nonzero"/></clipPath><clipPath id="b067de86a1"><path d="M 4797.101562 48.167969 L 5183 48.167969 L 5183 62.28125 L 4797.101562 62.28125 Z M 4797.101562 48.167969 " clip-rule="nonzero"/></clipPath><clipPath id="84648513d9"><path d="M 4797.101562 106 L 5183 106 L 5183 119.820312 L 4797.101562 119.820312 Z M 4797.101562 106 " clip-rule="nonzero"/></clipPath><clipPath id="22ee27dc8f"><path d="M 4797.101562 163.246094 L 5183 163.246094 L 5183 177.359375 L 4797.101562 177.359375 Z M 4797.101562 163.246094 " clip-rule="nonzero"/></clipPath><clipPath id="a7f80f7d05"><path d="M 4797.101562 221 L 5183 221 L 5183 234.894531 L 4797.101562 234.894531 Z M 4797.101562 221 " clip-rule="nonzero"/></clipPath><clipPath id="9d5d339595"><path d="M 4797.101562 278.320312 L 5183 278.320312 L 5183 292.433594 L 4797.101562 292.433594 Z M 4797.101562 278.320312 " clip-rule="nonzero"/></clipPath><clipPath id="6a255e1d9b"><path d="M 4797.101562 336 L 5183 336 L 5183 349.96875 L 4797.101562 349.96875 Z M 4797.101562 336 " clip-rule="nonzero"/></clipPath><clipPath id="14094bcd8d"><path d="M 4797.101562 393.394531 L 5183 393.394531 L 5183 408 L 4797.101562 408 Z M 4797.101562 393.394531 " clip-rule="nonzero"/></clipPath><clipPath id="fd7cb9a7fd"><path d="M 4797.101562 451 L 5183 451 L 5183 466 L 4797.101562 466 Z M 4797.101562 451 " clip-rule="nonzero"/></clipPath><clipPath id="f17ce9df5d"><path d="M 4797.101562 509 L 5183 509 L 5183 523 L 4797.101562 523 Z M 4797.101562 509 " clip-rule="nonzero"/></clipPath><clipPath id="3b3169c83f"><path d="M 1633.570312 567.394531 L 2279.5625 567.394531 L 2279.5625 581.40625 L 1633.570312 581.40625 Z M 1633.570312 567.394531 " clip-rule="nonzero"/></clipPath><clipPath id="3787c37d81"><path d="M 1633.570312 625 L 2279.5625 625 L 2279.5625 638.945312 L 1633.570312 638.945312 Z M 1633.570312 625 " clip-rule="nonzero"/></clipPath><clipPath id="6cfb008092"><path d="M 1633.570312 682.371094 L 2279.5625 682.371094 L 2279.5625 696.484375 L 1633.570312 696.484375 Z M 1633.570312 682.371094 " clip-rule="nonzero"/></clipPath><clipPath id="5ddc55ff57"><path d="M 1633.570312 740 L 2279.5625 740 L 2279.5625 754 L 1633.570312 754 Z M 1633.570312 740 " clip-rule="nonzero"/></clipPath><clipPath id="e94b5308d0"><path d="M 1633.570312 797.445312 L 2279.5625 797.445312 L 2279.5625 811.558594 L 1633.570312 811.558594 Z M 1633.570312 797.445312 " clip-rule="nonzero"/></clipPath><clipPath id="51fbcf3908"><path d="M 1633.570312 855 L 2279.5625 855 L 2279.5625 869 L 1633.570312 869 Z M 1633.570312 855 " clip-rule="nonzero"/></clipPath><clipPath id="11786cf787"><path d="M 1633.570312 913 L 2279.5625 913 L 2279.5625 926.632812 L 1633.570312 926.632812 Z M 1633.570312 913 " clip-rule="nonzero"/></clipPath><clipPath id="499cb3aeb4"><path d="M 1633.570312 970.058594 L 2279.5625 970.058594 L 2279.5625 984.171875 L 1633.570312 984.171875 Z M 1633.570312 970.058594 " clip-rule="nonzero"/></clipPath><clipPath id="c6cb9fc6d1"><path d="M 1633.570312 1028 L 2279.5625 1028 L 2279.5625 1042 L 1633.570312 1042 Z M 1633.570312 1028 " clip-rule="nonzero"/></clipPath><clipPath id="8b16943c1a"><path d="M 1633.570312 1085.132812 L 2279.5625 1085.132812 L 2279.5625 1100 L 1633.570312 1100 Z M 1633.570312 1085.132812 " clip-rule="nonzero"/></clipPath><clipPath id="6cad9d5d01"><path d="M 1633.570312 1143 L 2279.5625 1143 L 2279.5625 1157 L 1633.570312 1157 Z M 1633.570312 1143 " clip-rule="nonzero"/></clipPath><clipPath id="fe170b2bb1"><path d="M 2272.714844 567.394531 L 2918.703125 567.394531 L 2918.703125 581.40625 L 2272.714844 581.40625 Z M 2272.714844 567.394531 " clip-rule="nonzero"/></clipPath><clipPath id="fca5088578"><path d="M 2272.714844 625 L 2918.703125 625 L 2918.703125 638.945312 L 2272.714844 638.945312 Z M 2272.714844 625 " clip-rule="nonzero"/></clipPath><clipPath id="094bed2f1f"><path d="M 2272.714844 682.371094 L 2918.703125 682.371094 L 2918.703125 696.484375 L 2272.714844 696.484375 Z M 2272.714844 682.371094 " clip-rule="nonzero"/></clipPath><clipPath id="31cf2d295c"><path d="M 2272.714844 740 L 2918.703125 740 L 2918.703125 754 L 2272.714844 754 Z M 2272.714844 740 " clip-rule="nonzero"/></clipPath><clipPath id="10b6deb033"><path d="M 2272.714844 797.445312 L 2918.703125 797.445312 L 2918.703125 811.558594 L 2272.714844 811.558594 Z M 2272.714844 797.445312 " clip-rule="nonzero"/></clipPath><clipPath id="c986480c03"><path d="M 2272.714844 855 L 2918.703125 855 L 2918.703125 869 L 2272.714844 869 Z M 2272.714844 855 " clip-rule="nonzero"/></clipPath><clipPath id="8636e07d71"><path d="M 2272.714844 913 L 2918.703125 913 L 2918.703125 926.632812 L 2272.714844 926.632812 Z M 2272.714844 913 " clip-rule="nonzero"/></clipPath><clipPath id="e227831364"><path d="M 2272.714844 970.058594 L 2918.703125 970.058594 L 2918.703125 984.171875 L 2272.714844 984.171875 Z M 2272.714844 970.058594 " clip-rule="nonzero"/></clipPath><clipPath id="d88d02da5a"><path d="M 2272.714844 1028 L 2918.703125 1028 L 2918.703125 1042 L 2272.714844 1042 Z M 2272.714844 1028 " clip-rule="nonzero"/></clipPath><clipPath id="258c259b8f"><path d="M 2272.714844 1085.132812 L 2918.703125 1085.132812 L 2918.703125 1100 L 2272.714844 1100 Z M 2272.714844 1085.132812 " clip-rule="nonzero"/></clipPath><clipPath id="2ba638eff9"><path d="M 2272.714844 1143 L 2918.703125 1143 L 2918.703125 1157 L 2272.714844 1157 Z M 2272.714844 1143 " clip-rule="nonzero"/></clipPath><clipPath id="1d4d8b0d73"><path d="M 2892.257812 567.394531 L 3538.246094 567.394531 L 3538.246094 581.40625 L 2892.257812 581.40625 Z M 2892.257812 567.394531 " clip-rule="nonzero"/></clipPath><clipPath id="23bbdeb84b"><path d="M 2892.257812 625 L 3538.246094 625 L 3538.246094 638.945312 L 2892.257812 638.945312 Z M 2892.257812 625 " clip-rule="nonzero"/></clipPath><clipPath id="48d3577285"><path d="M 2892.257812 682.371094 L 3538.246094 682.371094 L 3538.246094 696.484375 L 2892.257812 696.484375 Z M 2892.257812 682.371094 " clip-rule="nonzero"/></clipPath><clipPath id="d8219b3327"><path d="M 2892.257812 740 L 3538.246094 740 L 3538.246094 754 L 2892.257812 754 Z M 2892.257812 740 " clip-rule="nonzero"/></clipPath><clipPath id="6a59f7f58e"><path d="M 2892.257812 797.445312 L 3538.246094 797.445312 L 3538.246094 811.558594 L 2892.257812 811.558594 Z M 2892.257812 797.445312 " clip-rule="nonzero"/></clipPath><clipPath id="94e84b3eb9"><path d="M 2892.257812 855 L 3538.246094 855 L 3538.246094 869 L 2892.257812 869 Z M 2892.257812 855 " clip-rule="nonzero"/></clipPath><clipPath id="452467ee73"><path d="M 2892.257812 913 L 3538.246094 913 L 3538.246094 926.632812 L 2892.257812 926.632812 Z M 2892.257812 913 " clip-rule="nonzero"/></clipPath><clipPath id="6c94ca6713"><path d="M 2892.257812 970.058594 L 3538.246094 970.058594 L 3538.246094 984.171875 L 2892.257812 984.171875 Z M 2892.257812 970.058594 " clip-rule="nonzero"/></clipPath><clipPath id="a828c099c2"><path d="M 2892.257812 1028 L 3538.246094 1028 L 3538.246094 1042 L 2892.257812 1042 Z M 2892.257812 1028 " clip-rule="nonzero"/></clipPath><clipPath id="f6d641c307"><path d="M 2892.257812 1085.132812 L 3538.246094 1085.132812 L 3538.246094 1100 L 2892.257812 1100 Z M 2892.257812 1085.132812 " clip-rule="nonzero"/></clipPath><clipPath id="9b8a196c92"><path d="M 2892.257812 1143 L 3538.246094 1143 L 3538.246094 1157 L 2892.257812 1157 Z M 2892.257812 1143 " clip-rule="nonzero"/></clipPath><clipPath id="f06d3c59c4"><path d="M 1 567.394531 L 386.726562 567.394531 L 386.726562 581.40625 L 1 581.40625 Z M 1 567.394531 " clip-rule="nonzero"/></clipPath><clipPath id="b95e8f7038"><path d="M 1 625 L 386.726562 625 L 386.726562 638.945312 L 1 638.945312 Z M 1 625 " clip-rule="nonzero"/></clipPath><clipPath id="bbd3b51b1e"><path d="M 1 682.371094 L 386.726562 682.371094 L 386.726562 696.484375 L 1 696.484375 Z M 1 682.371094 " clip-rule="nonzero"/></clipPath><clipPath id="c2d8f0cf60"><path d="M 1 740 L 386.726562 740 L 386.726562 754 L 1 754 Z M 1 740 " clip-rule="nonzero"/></clipPath><clipPath id="a5e12b9a7c"><path d="M 1 797.445312 L 386.726562 797.445312 L 386.726562 811.558594 L 1 811.558594 Z M 1 797.445312 " clip-rule="nonzero"/></clipPath><clipPath id="c2dbee1d6e"><path d="M 1 855 L 386.726562 855 L 386.726562 869 L 1 869 Z M 1 855 " clip-rule="nonzero"/></clipPath><clipPath id="60b6c71caa"><path d="M 1 913 L 386.726562 913 L 386.726562 926.632812 L 1 926.632812 Z M 1 913 " clip-rule="nonzero"/></clipPath><clipPath id="73349915aa"><path d="M 1 970.058594 L 386.726562 970.058594 L 386.726562 984.171875 L 1 984.171875 Z M 1 970.058594 " clip-rule="nonzero"/></clipPath><clipPath id="6f93e214b1"><path d="M 1 1028 L 386.726562 1028 L 386.726562 1042 L 1 1042 Z M 1 1028 " clip-rule="nonzero"/></clipPath><clipPath id="990dee6f04"><path d="M 1 1085.132812 L 386.726562 1085.132812 L 386.726562 1100 L 1 1100 Z M 1 1085.132812 " clip-rule="nonzero"/></clipPath><clipPath id="0a0de96f57"><path d="M 1 1143 L 386.726562 1143 L 386.726562 1157 L 1 1157 Z M 1 1143 " clip-rule="nonzero"/></clipPath><clipPath id="79ac6856a3"><path d="M 379.878906 567.394531 L 1025.867188 567.394531 L 1025.867188 581.40625 L 379.878906 581.40625 Z M 379.878906 567.394531 " clip-rule="nonzero"/></clipPath><clipPath id="9986392fca"><path d="M 379.878906 625 L 1025.867188 625 L 1025.867188 638.945312 L 379.878906 638.945312 Z M 379.878906 625 " clip-rule="nonzero"/></clipPath><clipPath id="82c59e69c3"><path d="M 379.878906 682.371094 L 1025.867188 682.371094 L 1025.867188 696.484375 L 379.878906 696.484375 Z M 379.878906 682.371094 " clip-rule="nonzero"/></clipPath><clipPath id="0df8851bc6"><path d="M 379.878906 740 L 1025.867188 740 L 1025.867188 754 L 379.878906 754 Z M 379.878906 740 " clip-rule="nonzero"/></clipPath><clipPath id="2aad783467"><path d="M 379.878906 797.445312 L 1025.867188 797.445312 L 1025.867188 811.558594 L 379.878906 811.558594 Z M 379.878906 797.445312 " clip-rule="nonzero"/></clipPath><clipPath id="598570fcb5"><path d="M 379.878906 855 L 1025.867188 855 L 1025.867188 869 L 379.878906 869 Z M 379.878906 855 " clip-rule="nonzero"/></clipPath><clipPath id="b77dcadc5c"><path d="M 379.878906 913 L 1025.867188 913 L 1025.867188 926.632812 L 379.878906 926.632812 Z M 379.878906 913 " clip-rule="nonzero"/></clipPath><clipPath id="99a9bbe33d"><path d="M 379.878906 970.058594 L 1025.867188 970.058594 L 1025.867188 984.171875 L 379.878906 984.171875 Z M 379.878906 970.058594 " clip-rule="nonzero"/></clipPath><clipPath id="620182dbb6"><path d="M 379.878906 1028 L 1025.867188 1028 L 1025.867188 1042 L 379.878906 1042 Z M 379.878906 1028 " clip-rule="nonzero"/></clipPath><clipPath id="18bf57464b"><path d="M 379.878906 1085.132812 L 1025.867188 1085.132812 L 1025.867188 1100 L 379.878906 1100 Z M 379.878906 1085.132812 " clip-rule="nonzero"/></clipPath><clipPath id="9a0323de77"><path d="M 379.878906 1143 L 1025.867188 1143 L 1025.867188 1157 L 379.878906 1157 Z M 379.878906 1143 " clip-rule="nonzero"/></clipPath><clipPath id="1112786775"><path d="M 999.421875 567.394531 L 1645.410156 567.394531 L 1645.410156 581.40625 L 999.421875 581.40625 Z M 999.421875 567.394531 " clip-rule="nonzero"/></clipPath><clipPath id="651f69674c"><path d="M 999.421875 625 L 1645.410156 625 L 1645.410156 638.945312 L 999.421875 638.945312 Z M 999.421875 625 " clip-rule="nonzero"/></clipPath><clipPath id="d405db926f"><path d="M 999.421875 682.371094 L 1645.410156 682.371094 L 1645.410156 696.484375 L 999.421875 696.484375 Z M 999.421875 682.371094 " clip-rule="nonzero"/></clipPath><clipPath id="09695dd2a4"><path d="M 999.421875 740 L 1645.410156 740 L 1645.410156 754 L 999.421875 754 Z M 999.421875 740 " clip-rule="nonzero"/></clipPath><clipPath id="198e77f4c1"><path d="M 999.421875 797.445312 L 1645.410156 797.445312 L 1645.410156 811.558594 L 999.421875 811.558594 Z M 999.421875 797.445312 " clip-rule="nonzero"/></clipPath><clipPath id="fe8835b59f"><path d="M 999.421875 855 L 1645.410156 855 L 1645.410156 869 L 999.421875 869 Z M 999.421875 855 " clip-rule="nonzero"/></clipPath><clipPath id="eb4de5b224"><path d="M 999.421875 913 L 1645.410156 913 L 1645.410156 926.632812 L 999.421875 926.632812 Z M 999.421875 913 " clip-rule="nonzero"/></clipPath><clipPath id="91b7bd3f91"><path d="M 999.421875 970.058594 L 1645.410156 970.058594 L 1645.410156 984.171875 L 999.421875 984.171875 Z M 999.421875 970.058594 " clip-rule="nonzero"/></clipPath><clipPath id="e72cc42f1c"><path d="M 999.421875 1028 L 1645.410156 1028 L 1645.410156 1042 L 999.421875 1042 Z M 999.421875 1028 " clip-rule="nonzero"/></clipPath><clipPath id="cdf61c7c3f"><path d="M 999.421875 1085.132812 L 1645.410156 1085.132812 L 1645.410156 1100 L 999.421875 1100 Z M 999.421875 1085.132812 " clip-rule="nonzero"/></clipPath><clipPath id="8d0786cb01"><path d="M 999.421875 1143 L 1645.410156 1143 L 1645.410156 1157 L 999.421875 1157 Z M 999.421875 1143 " clip-rule="nonzero"/></clipPath><clipPath id="948bce8ffa"><path d="M 3538.417969 567.394531 L 4184.40625 567.394531 L 4184.40625 581.40625 L 3538.417969 581.40625 Z M 3538.417969 567.394531 " clip-rule="nonzero"/></clipPath><clipPath id="93eb2373db"><path d="M 3538.417969 625 L 4184.40625 625 L 4184.40625 638.945312 L 3538.417969 638.945312 Z M 3538.417969 625 " clip-rule="nonzero"/></clipPath><clipPath id="f40740be78"><path d="M 3538.417969 682.371094 L 4184.40625 682.371094 L 4184.40625 696.484375 L 3538.417969 696.484375 Z M 3538.417969 682.371094 " clip-rule="nonzero"/></clipPath><clipPath id="7478d544c8"><path d="M 3538.417969 740 L 4184.40625 740 L 4184.40625 754 L 3538.417969 754 Z M 3538.417969 740 " clip-rule="nonzero"/></clipPath><clipPath id="54f7fe424c"><path d="M 3538.417969 797.445312 L 4184.40625 797.445312 L 4184.40625 811.558594 L 3538.417969 811.558594 Z M 3538.417969 797.445312 " clip-rule="nonzero"/></clipPath><clipPath id="ad5287bf94"><path d="M 3538.417969 855 L 4184.40625 855 L 4184.40625 869 L 3538.417969 869 Z M 3538.417969 855 " clip-rule="nonzero"/></clipPath><clipPath id="54863129c3"><path d="M 3538.417969 913 L 4184.40625 913 L 4184.40625 926.632812 L 3538.417969 926.632812 Z M 3538.417969 913 " clip-rule="nonzero"/></clipPath><clipPath id="ef8424d582"><path d="M 3538.417969 970.058594 L 4184.40625 970.058594 L 4184.40625 984.171875 L 3538.417969 984.171875 Z M 3538.417969 970.058594 " clip-rule="nonzero"/></clipPath><clipPath id="fd2fd377a3"><path d="M 3538.417969 1028 L 4184.40625 1028 L 4184.40625 1042 L 3538.417969 1042 Z M 3538.417969 1028 " clip-rule="nonzero"/></clipPath><clipPath id="a0f5820dbb"><path d="M 3538.417969 1085.132812 L 4184.40625 1085.132812 L 4184.40625 1100 L 3538.417969 1100 Z M 3538.417969 1085.132812 " clip-rule="nonzero"/></clipPath><clipPath id="a1f63c82e7"><path d="M 3538.417969 1143 L 4184.40625 1143 L 4184.40625 1157 L 3538.417969 1157 Z M 3538.417969 1143 " clip-rule="nonzero"/></clipPath><clipPath id="91f772f6c0"><path d="M 4177.558594 567.394531 L 4823.546875 567.394531 L 4823.546875 581.40625 L 4177.558594 581.40625 Z M 4177.558594 567.394531 " clip-rule="nonzero"/></clipPath><clipPath id="52fe85b838"><path d="M 4177.558594 625 L 4823.546875 625 L 4823.546875 638.945312 L 4177.558594 638.945312 Z M 4177.558594 625 " clip-rule="nonzero"/></clipPath><clipPath id="0ff84dbfd6"><path d="M 4177.558594 682.371094 L 4823.546875 682.371094 L 4823.546875 696.484375 L 4177.558594 696.484375 Z M 4177.558594 682.371094 " clip-rule="nonzero"/></clipPath><clipPath id="fe17c1a7e5"><path d="M 4177.558594 740 L 4823.546875 740 L 4823.546875 754 L 4177.558594 754 Z M 4177.558594 740 " clip-rule="nonzero"/></clipPath><clipPath id="2f5ec77c8c"><path d="M 4177.558594 797.445312 L 4823.546875 797.445312 L 4823.546875 811.558594 L 4177.558594 811.558594 Z M 4177.558594 797.445312 " clip-rule="nonzero"/></clipPath><clipPath id="95d1bc7610"><path d="M 4177.558594 855 L 4823.546875 855 L 4823.546875 869 L 4177.558594 869 Z M 4177.558594 855 " clip-rule="nonzero"/></clipPath><clipPath id="2f5fa277d9"><path d="M 4177.558594 913 L 4823.546875 913 L 4823.546875 926.632812 L 4177.558594 926.632812 Z M 4177.558594 913 " clip-rule="nonzero"/></clipPath><clipPath id="52a39d0415"><path d="M 4177.558594 970.058594 L 4823.546875 970.058594 L 4823.546875 984.171875 L 4177.558594 984.171875 Z M 4177.558594 970.058594 " clip-rule="nonzero"/></clipPath><clipPath id="be54e57967"><path d="M 4177.558594 1028 L 4823.546875 1028 L 4823.546875 1042 L 4177.558594 1042 Z M 4177.558594 1028 " clip-rule="nonzero"/></clipPath><clipPath id="5cc7811057"><path d="M 4177.558594 1085.132812 L 4823.546875 1085.132812 L 4823.546875 1100 L 4177.558594 1100 Z M 4177.558594 1085.132812 " clip-rule="nonzero"/></clipPath><clipPath id="05a7da7488"><path d="M 4177.558594 1143 L 4823.546875 1143 L 4823.546875 1157 L 4177.558594 1157 Z M 4177.558594 1143 " clip-rule="nonzero"/></clipPath><clipPath id="efd1c85a71"><path d="M 4797.101562 567.394531 L 5183 567.394531 L 5183 581.40625 L 4797.101562 581.40625 Z M 4797.101562 567.394531 " clip-rule="nonzero"/></clipPath><clipPath id="34c0409559"><path d="M 4797.101562 625 L 5183 625 L 5183 638.945312 L 4797.101562 638.945312 Z M 4797.101562 625 " clip-rule="nonzero"/></clipPath><clipPath id="6949464fc5"><path d="M 4797.101562 682.371094 L 5183 682.371094 L 5183 696.484375 L 4797.101562 696.484375 Z M 4797.101562 682.371094 " clip-rule="nonzero"/></clipPath><clipPath id="9ee66c1026"><path d="M 4797.101562 740 L 5183 740 L 5183 754 L 4797.101562 754 Z M 4797.101562 740 " clip-rule="nonzero"/></clipPath><clipPath id="8693e20173"><path d="M 4797.101562 797.445312 L 5183 797.445312 L 5183 811.558594 L 4797.101562 811.558594 Z M 4797.101562 797.445312 " clip-rule="nonzero"/></clipPath><clipPath id="c0a5484fd4"><path d="M 4797.101562 855 L 5183 855 L 5183 869 L 4797.101562 869 Z M 4797.101562 855 " clip-rule="nonzero"/></clipPath><clipPath id="51433b0f69"><path d="M 4797.101562 913 L 5183 913 L 5183 926.632812 L 4797.101562 926.632812 Z M 4797.101562 913 " clip-rule="nonzero"/></clipPath><clipPath id="23ea97d2ae"><path d="M 4797.101562 970.058594 L 5183 970.058594 L 5183 984.171875 L 4797.101562 984.171875 Z M 4797.101562 970.058594 " clip-rule="nonzero"/></clipPath><clipPath id="5b80bf9e5e"><path d="M 4797.101562 1028 L 5183 1028 L 5183 1042 L 4797.101562 1042 Z M 4797.101562 1028 " clip-rule="nonzero"/></clipPath><clipPath id="69eb419566"><path d="M 4797.101562 1085.132812 L 5183 1085.132812 L 5183 1100 L 4797.101562 1100 Z M 4797.101562 1085.132812 " clip-rule="nonzero"/></clipPath><clipPath id="de3987d06a"><path d="M 4797.101562 1143 L 5183 1143 L 5183 1157 L 4797.101562 1157 Z M 4797.101562 1143 " clip-rule="nonzero"/></clipPath><clipPath id="ac5d1ab892"><path d="M 1112.226562 410.414062 L 4072.085938 410.414062 L 4072.085938 1197.609375 L 1112.226562 1197.609375 Z M 1112.226562 410.414062 " clip-rule="nonzero"/></clipPath><clipPath id="dec8945598"><path d="M 1112.226562 1192.648438 L 4072.085938 1192.648438 L 4072.085938 1979.84375 L 1112.226562 1979.84375 Z M 1112.226562 1192.648438 " clip-rule="nonzero"/></clipPath><clipPath id="643c533ea4"><path d="M 2241.933594 785.417969 L 2943.011719 785.417969 L 2943.011719 942.019531 L 2241.933594 942.019531 Z M 2241.933594 785.417969 " clip-rule="nonzero"/></clipPath><clipPath id="5070d34306"><path d="M 2305.058594 1591.710938 L 2942.402344 1591.710938 L 2942.402344 1748.316406 L 2305.058594 1748.316406 Z M 2305.058594 1591.710938 " clip-rule="nonzero"/></clipPath></defs><path fill="#ffffff" d="M 1 0 L 5183 0 L 5183 2591 L 1 2591 Z M 1 0 " fill-opacity="1" fill-rule="nonzero"/><path fill="#143584" d="M 1 0 L 5183 0 L 5183 2591 L 1 2591 Z M 1 0 " fill-opacity="1" fill-rule="nonzero"/><g clip-path="url(#e29980ad09)"><path fill="#cd2f2f" d="M -74.253906 -66.808594 L 5322.164062 -66.808594 L 5322.164062 1192.707031 L -74.253906 1192.707031 Z M -74.253906 -66.808594 " fill-opacity="1" fill-rule="nonzero"/></g><g clip-path="url(#89cdc61dee)"><path fill="#ffffff" d="M 386.957031 4.421875 L -259.242188 4.421875 L -259.242188 -9.121094 L 386.957031 -9.121094 L 386.957031 4.421875 " fill-opacity="1" fill-rule="nonzero"/></g><g clip-path="url(#382aceb12a)"><path fill="#ffffff" d="M 386.957031 62.011719 L -259.242188 62.011719 L -259.242188 48.460938 L 386.957031 48.460938 L 386.957031 62.011719 " fill-opacity="1" fill-rule="nonzero"/></g><g clip-path="url(#35ea8712cf)"><path fill="#ffffff" d="M 386.957031 119.59375 L -259.242188 119.59375 L -259.242188 106.046875 L 386.957031 106.046875 L 386.957031 119.59375 " fill-opacity="1" fill-rule="nonzero"/></g><g clip-path="url(#7cec19cffd)"><path fill="#ffffff" d="M 386.957031 177.179688 L -259.242188 177.179688 L -259.242188 163.628906 L 386.957031 163.628906 L 386.957031 177.179688 " fill-opacity="1" fill-rule="nonzero"/></g><g clip-path="url(#9f023fb1c5)"><path fill="#ffffff" d="M 386.957031 234.765625 L -259.242188 234.765625 L -259.242188 221.214844 L 386.957031 221.214844 L 386.957031 234.765625 " fill-opacity="1" fill-rule="nonzero"/></g><g clip-path="url(#85aee2b421)"><path fill="#ffffff" d="M 386.957031 292.347656 L -259.242188 292.347656 L -259.242188 278.804688 L 386.957031 278.804688 L 386.957031 292.347656 " fill-opacity="1" fill-rule="nonzero"/></g><g clip-path="url(#59166b3bc5)"><path fill="#ffffff" d="M 386.957031 349.9375 L -259.242188 349.9375 L -259.242188 336.386719 L 386.957031 336.386719 L 386.957031 349.9375 " fill-opacity="1" fill-rule="nonzero"/></g><g clip-path="url(#f2b26a8a57)"><path fill="#ffffff" d="M 386.957031 407.519531 L -259.242188 407.519531 L -259.242188 393.972656 L 386.957031 393.972656 L 386.957031 407.519531 " fill-opacity="1" fill-rule="nonzero"/></g><g clip-path="url(#a4a671ccb8)"><path fill="#ffffff" d="M 386.957031 465.105469 L -259.242188 465.105469 L -259.242188 451.554688 L 386.957031 451.554688 L 386.957031 465.105469 " fill-opacity="1" fill-rule="nonzero"/></g><g clip-path="url(#ecc29a2873)"><path fill="#ffffff" d="M 386.957031 522.6875 L -259.242188 522.6875 L -259.242188 509.140625 L 386.957031 509.140625 L 386.957031 522.6875 " fill-opacity="1" fill-rule="nonzero"/></g><g clip-path="url(#01517cc76c)"><path fill="#ffffff" d="M 1026.097656 4.421875 L 379.898438 4.421875 L 379.898438 -9.121094 L 1026.097656 -9.121094 L 1026.097656 4.421875 " fill-opacity="1" fill-rule="nonzero"/></g><g clip-path="url(#205d89ce0d)"><path fill="#ffffff" d="M 1026.097656 62.011719 L 379.898438 62.011719 L 379.898438 48.460938 L 1026.097656 48.460938 L 1026.097656 62.011719 " fill-opacity="1" fill-rule="nonzero"/></g><g clip-path="url(#27f5bee8b6)"><path fill="#ffffff" d="M 1026.097656 119.59375 L 379.898438 119.59375 L 379.898438 106.046875 L 1026.097656 106.046875 L 1026.097656 119.59375 " fill-opacity="1" fill-rule="nonzero"/></g><g clip-path="url(#8f3978af0b)"><path fill="#ffffff" d="M 1026.097656 177.179688 L 379.898438 177.179688 L 379.898438 163.628906 L 1026.097656 163.628906 L 1026.097656 177.179688 " fill-opacity="1" fill-rule="nonzero"/></g><g clip-path="url(#cdfa9a75b4)"><path fill="#ffffff" d="M 1026.097656 234.765625 L 379.898438 234.765625 L 379.898438 221.214844 L 1026.097656 221.214844 L 1026.097656 234.765625 " fill-opacity="1" fill-rule="nonzero"/></g><g clip-path="url(#afa207dd43)"><path fill="#ffffff" d="M 1026.097656 292.347656 L 379.898438 292.347656 L 379.898438 278.804688 L 1026.097656 278.804688 L 1026.097656 292.347656 " fill-opacity="1" fill-rule="nonzero"/></g><g clip-path="url(#3b3c5412f4)"><path fill="#ffffff" d="M 1026.097656 349.9375 L 379.898438 349.9375 L 379.898438 336.386719 L 1026.097656 336.386719 L 1026.097656 349.9375 " fill-opacity="1" fill-rule="nonzero"/></g><g clip-path="url(#4292badce3)"><path fill="#ffffff" d="M 1026.097656 407.519531 L 379.898438 407.519531 L 379.898438 393.972656 L 1026.097656 393.972656 L 1026.097656 407.519531 " fill-opacity="1" fill-rule="nonzero"/></g><g clip-path="url(#5304bd0499)"><path fill="#ffffff" d="M 1026.097656 465.105469 L 379.898438 465.105469 L 379.898438 451.554688 L 1026.097656 451.554688 L 1026.097656 465.105469 " fill-opacity="1" fill-rule="nonzero"/></g><g clip-path="url(#75e4065c20)"><path fill="#ffffff" d="M 1026.097656 522.6875 L 379.898438 522.6875 L 379.898438 509.140625 L 1026.097656 509.140625 L 1026.097656 522.6875 " fill-opacity="1" fill-rule="nonzero"/></g><g clip-path="url(#d90aa2d450)"><path fill="#ffffff" d="M 1645.640625 4.421875 L 999.441406 4.421875 L 999.441406 -9.121094 L 1645.640625 -9.121094 L 1645.640625 4.421875 " fill-opacity="1" fill-rule="nonzero"/></g><g clip-path="url(#2bfea58670)"><path fill="#ffffff" d="M 1645.640625 62.011719 L 999.441406 62.011719 L 999.441406 48.460938 L 1645.640625 48.460938 L 1645.640625 62.011719 " fill-opacity="1" fill-rule="nonzero"/></g><g clip-path="url(#cdcbd601fe)"><path fill="#ffffff" d="M 1645.640625 119.59375 L 999.441406 119.59375 L 999.441406 106.046875 L 1645.640625 106.046875 L 1645.640625 119.59375 " fill-opacity="1" fill-rule="nonzero"/></g><g clip-path="url(#31de1d50ca)"><path fill="#ffffff" d="M 1645.640625 177.179688 L 999.441406 177.179688 L 999.441406 163.628906 L 1645.640625 163.628906 L 1645.640625 177.179688 " fill-opacity="1" fill-rule="nonzero"/></g><g clip-path="url(#636ce40ef7)"><path fill="#ffffff" d="M 1645.640625 234.765625 L 999.441406 234.765625 L 999.441406 221.214844 L 1645.640625 221.214844 L 1645.640625 234.765625 " fill-opacity="1" fill-rule="nonzero"/></g><g clip-path="url(#a490d1d815)"><path fill="#ffffff" d="M 1645.640625 292.347656 L 999.441406 292.347656 L 999.441406 278.804688 L 1645.640625 278.804688 L 1645.640625 292.347656 " fill-opacity="1" fill-rule="nonzero"/></g><g clip-path="url(#b50ef0ef43)"><path fill="#ffffff" d="M 1645.640625 349.9375 L 999.441406 349.9375 L 999.441406 336.386719 L 1645.640625 336.386719 L 1645.640625 349.9375 " fill-opacity="1" fill-rule="nonzero"/></g><g clip-path="url(#9c23af8cb2)"><path fill="#ffffff" d="M 1645.640625 407.519531 L 999.441406 407.519531 L 999.441406 393.972656 L 1645.640625 393.972656 L 1645.640625 407.519531 " fill-opacity="1" fill-rule="nonzero"/></g><g clip-path="url(#8656174aed)"><path fill="#ffffff" d="M 1645.640625 465.105469 L 999.441406 465.105469 L 999.441406 451.554688 L 1645.640625 451.554688 L 1645.640625 465.105469 " fill-opacity="1" fill-rule="nonzero"/></g><g clip-path="url(#39af42db9e)"><path fill="#ffffff" d="M 1645.640625 522.6875 L 999.441406 522.6875 L 999.441406 509.140625 L 1645.640625 509.140625 L 1645.640625 522.6875 " fill-opacity="1" fill-rule="nonzero"/></g><g clip-path="url(#9e69f42198)"><path fill="#ffffff" d="M 2279.792969 4.421875 L 1633.59375 4.421875 L 1633.59375 -9.121094 L 2279.792969 -9.121094 L 2279.792969 4.421875 " fill-opacity="1" fill-rule="nonzero"/></g><g clip-path="url(#0338b00d65)"><path fill="#ffffff" d="M 2279.792969 62.011719 L 1633.59375 62.011719 L 1633.59375 48.460938 L 2279.792969 48.460938 L 2279.792969 62.011719 " fill-opacity="1" fill-rule="nonzero"/></g><g clip-path="url(#5f9e14f536)"><path fill="#ffffff" d="M 2279.792969 119.59375 L 1633.59375 119.59375 L 1633.59375 106.046875 L 2279.792969 106.046875 L 2279.792969 119.59375 " fill-opacity="1" fill-rule="nonzero"/></g><g clip-path="url(#841301b26d)"><path fill="#ffffff" d="M 2279.792969 177.179688 L 1633.59375 177.179688 L 1633.59375 163.628906 L 2279.792969 163.628906 L 2279.792969 177.179688 " fill-opacity="1" fill-rule="nonzero"/></g><g clip-path="url(#fe266940b8)"><path fill="#ffffff" d="M 2279.792969 234.765625 L 1633.59375 234.765625 L 1633.59375 221.214844 L 2279.792969 221.214844 L 2279.792969 234.765625 " fill-opacity="1" fill-rule="nonzero"/></g><g clip-path="url(#d6459de381)"><path fill="#ffffff" d="M 2279.792969 292.347656 L 1633.59375 292.347656 L 1633.59375 278.804688 L 2279.792969 278.804688 L 2279.792969 292.347656 " fill-opacity="1" fill-rule="nonzero"/></g><g clip-path="url(#1cf428eaea)"><path fill="#ffffff" d="M 2279.792969 349.9375 L 1633.59375 349.9375 L 1633.59375 336.386719 L 2279.792969 336.386719 L 2279.792969 349.9375 " fill-opacity="1" fill-rule="nonzero"/></g><g clip-path="url(#54754d7eb0)"><path fill="#ffffff" d="M 2279.792969 407.519531 L 1633.59375 407.519531 L 1633.59375 393.972656 L 2279.792969 393.972656 L 2279.792969 407.519531 " fill-opacity="1" fill-rule="nonzero"/></g><g clip-path="url(#a1fb9004d7)"><path fill="#ffffff" d="M 2279.792969 465.105469 L 1633.59375 465.105469 L 1633.59375 451.554688 L 2279.792969 451.554688 L 2279.792969 465.105469 " fill-opacity="1" fill-rule="nonzero"/></g><g clip-path="url(#49a02594d4)"><path fill="#ffffff" d="M 2279.792969 522.6875 L 1633.59375 522.6875 L 1633.59375 509.140625 L 2279.792969 509.140625 L 2279.792969 522.6875 " fill-opacity="1" fill-rule="nonzero"/></g><g clip-path="url(#65b01b849f)"><path fill="#ffffff" d="M 2918.933594 4.421875 L 2272.734375 4.421875 L 2272.734375 -9.121094 L 2918.933594 -9.121094 L 2918.933594 4.421875 " fill-opacity="1" fill-rule="nonzero"/></g><g clip-path="url(#6559114d62)"><path fill="#ffffff" d="M 2918.933594 62.011719 L 2272.734375 62.011719 L 2272.734375 48.460938 L 2918.933594 48.460938 L 2918.933594 62.011719 " fill-opacity="1" fill-rule="nonzero"/></g><g clip-path="url(#cd835e937d)"><path fill="#ffffff" d="M 2918.933594 119.59375 L 2272.734375 119.59375 L 2272.734375 106.046875 L 2918.933594 106.046875 L 2918.933594 119.59375 " fill-opacity="1" fill-rule="nonzero"/></g><g clip-path="url(#b7e9d8c987)"><path fill="#ffffff" d="M 2918.933594 177.179688 L 2272.734375 177.179688 L 2272.734375 163.628906 L 2918.933594 163.628906 L 2918.933594 177.179688 " fill-opacity="1" fill-rule="nonzero"/></g><g clip-path="url(#62d22744b1)"><path fill="#ffffff" d="M 2918.933594 234.765625 L 2272.734375 234.765625 L 2272.734375 221.214844 L 2918.933594 221.214844 L 2918.933594 234.765625 " fill-opacity="1" fill-rule="nonzero"/></g><g clip-path="url(#933e3011ee)"><path fill="#ffffff" d="M 2918.933594 292.347656 L 2272.734375 292.347656 L 2272.734375 278.804688 L 2918.933594 278.804688 L 2918.933594 292.347656 " fill-opacity="1" fill-rule="nonzero"/></g><g clip-path="url(#ac7e1120e7)"><path fill="#ffffff" d="M 2918.933594 349.9375 L 2272.734375 349.9375 L 2272.734375 336.386719 L 2918.933594 336.386719 L 2918.933594 349.9375 " fill-opacity="1" fill-rule="nonzero"/></g><g clip-path="url(#7e53362c92)"><path fill="#ffffff" d="M 2918.933594 407.519531 L 2272.734375 407.519531 L 2272.734375 393.972656 L 2918.933594 393.972656 L 2918.933594 407.519531 " fill-opacity="1" fill-rule="nonzero"/></g><g clip-path="url(#5e405faa6b)"><path fill="#ffffff" d="M 2918.933594 465.105469 L 2272.734375 465.105469 L 2272.734375 451.554688 L 2918.933594 451.554688 L 2918.933594 465.105469 " fill-opacity="1" fill-rule="nonzero"/></g><g clip-path="url(#72a0edce8e)"><path fill="#ffffff" d="M 2918.933594 522.6875 L 2272.734375 522.6875 L 2272.734375 509.140625 L 2918.933594 509.140625 L 2918.933594 522.6875 " fill-opacity="1" fill-rule="nonzero"/></g><g clip-path="url(#b6a14d6f00)"><path fill="#ffffff" d="M 3538.476562 4.421875 L 2892.28125 4.421875 L 2892.28125 -9.121094 L 3538.476562 -9.121094 L 3538.476562 4.421875 " fill-opacity="1" fill-rule="nonzero"/></g><g clip-path="url(#06bdd157a7)"><path fill="#ffffff" d="M 3538.476562 62.011719 L 2892.28125 62.011719 L 2892.28125 48.460938 L 3538.476562 48.460938 L 3538.476562 62.011719 " fill-opacity="1" fill-rule="nonzero"/></g><g clip-path="url(#ebf311327e)"><path fill="#ffffff" d="M 3538.476562 119.59375 L 2892.28125 119.59375 L 2892.28125 106.046875 L 3538.476562 106.046875 L 3538.476562 119.59375 " fill-opacity="1" fill-rule="nonzero"/></g><g clip-path="url(#4990331a16)"><path fill="#ffffff" d="M 3538.476562 177.179688 L 2892.28125 177.179688 L 2892.28125 163.628906 L 3538.476562 163.628906 L 3538.476562 177.179688 " fill-opacity="1" fill-rule="nonzero"/></g><g clip-path="url(#0db3b69bed)"><path fill="#ffffff" d="M 3538.476562 234.765625 L 2892.28125 234.765625 L 2892.28125 221.214844 L 3538.476562 221.214844 L 3538.476562 234.765625 " fill-opacity="1" fill-rule="nonzero"/></g><g clip-path="url(#5c55f3aab7)"><path fill="#ffffff" d="M 3538.476562 292.347656 L 2892.28125 292.347656 L 2892.28125 278.804688 L 3538.476562 278.804688 L 3538.476562 292.347656 " fill-opacity="1" fill-rule="nonzero"/></g><g clip-path="url(#b3e54d154f)"><path fill="#ffffff" d="M 3538.476562 349.9375 L 2892.28125 349.9375 L 2892.28125 336.386719 L 3538.476562 336.386719 L 3538.476562 349.9375 " fill-opacity="1" fill-rule="nonzero"/></g><g clip-path="url(#15f479308a)"><path fill="#ffffff" d="M 3538.476562 407.519531 L 2892.28125 407.519531 L 2892.28125 393.972656 L 3538.476562 393.972656 L 3538.476562 407.519531 " fill-opacity="1" fill-rule="nonzero"/></g><g clip-path="url(#bf53ae0e3d)"><path fill="#ffffff" d="M 3538.476562 465.105469 L 2892.28125 465.105469 L 2892.28125 451.554688 L 3538.476562 451.554688 L 3538.476562 465.105469 " fill-opacity="1" fill-rule="nonzero"/></g><g clip-path="url(#07f98bd1d1)"><path fill="#ffffff" d="M 3538.476562 522.6875 L 2892.28125 522.6875 L 2892.28125 509.140625 L 3538.476562 509.140625 L 3538.476562 522.6875 " fill-opacity="1" fill-rule="nonzero"/></g><g clip-path="url(#15507a8f22)"><path fill="#ffffff" d="M 4184.636719 4.421875 L 3538.4375 4.421875 L 3538.4375 -9.121094 L 4184.636719 -9.121094 L 4184.636719 4.421875 " fill-opacity="1" fill-rule="nonzero"/></g><g clip-path="url(#5111ebbc31)"><path fill="#ffffff" d="M 4184.636719 62.011719 L 3538.4375 62.011719 L 3538.4375 48.460938 L 4184.636719 48.460938 L 4184.636719 62.011719 " fill-opacity="1" fill-rule="nonzero"/></g><g clip-path="url(#bf19a1fb30)"><path fill="#ffffff" d="M 4184.636719 119.59375 L 3538.4375 119.59375 L 3538.4375 106.046875 L 4184.636719 106.046875 L 4184.636719 119.59375 " fill-opacity="1" fill-rule="nonzero"/></g><g clip-path="url(#e06e95f303)"><path fill="#ffffff" d="M 4184.636719 177.179688 L 3538.4375 177.179688 L 3538.4375 163.628906 L 4184.636719 163.628906 L 4184.636719 177.179688 " fill-opacity="1" fill-rule="nonzero"/></g><g clip-path="url(#e3d2d97c2c)"><path fill="#ffffff" d="M 4184.636719 234.765625 L 3538.4375 234.765625 L 3538.4375 221.214844 L 4184.636719 221.214844 L 4184.636719 234.765625 " fill-opacity="1" fill-rule="nonzero"/></g><g clip-path="url(#5c6b4df5f3)"><path fill="#ffffff" d="M 4184.636719 292.347656 L 3538.4375 292.347656 L 3538.4375 278.804688 L 4184.636719 278.804688 L 4184.636719 292.347656 " fill-opacity="1" fill-rule="nonzero"/></g><g clip-path="url(#414d417817)"><path fill="#ffffff" d="M 4184.636719 349.9375 L 3538.4375 349.9375 L 3538.4375 336.386719 L 4184.636719 336.386719 L 4184.636719 349.9375 " fill-opacity="1" fill-rule="nonzero"/></g><g clip-path="url(#0041afcdf1)"><path fill="#ffffff" d="M 4184.636719 407.519531 L 3538.4375 407.519531 L 3538.4375 393.972656 L 4184.636719 393.972656 L 4184.636719 407.519531 " fill-opacity="1" fill-rule="nonzero"/></g><g clip-path="url(#6dd05b853f)"><path fill="#ffffff" d="M 4184.636719 465.105469 L 3538.4375 465.105469 L 3538.4375 451.554688 L 4184.636719 451.554688 L 4184.636719 465.105469 " fill-opacity="1" fill-rule="nonzero"/></g><g clip-path="url(#32e8991e9a)"><path fill="#ffffff" d="M 4184.636719 522.6875 L 3538.4375 522.6875 L 3538.4375 509.140625 L 4184.636719 509.140625 L 4184.636719 522.6875 " fill-opacity="1" fill-rule="nonzero"/></g><g clip-path="url(#486db371a0)"><path fill="#ffffff" d="M 4823.777344 4.421875 L 4177.582031 4.421875 L 4177.582031 -9.121094 L 4823.777344 -9.121094 L 4823.777344 4.421875 " fill-opacity="1" fill-rule="nonzero"/></g><g clip-path="url(#e010990b74)"><path fill="#ffffff" d="M 4823.777344 62.011719 L 4177.582031 62.011719 L 4177.582031 48.460938 L 4823.777344 48.460938 L 4823.777344 62.011719 " fill-opacity="1" fill-rule="nonzero"/></g><g clip-path="url(#ab27e0c4eb)"><path fill="#ffffff" d="M 4823.777344 119.59375 L 4177.582031 119.59375 L 4177.582031 106.046875 L 4823.777344 106.046875 L 4823.777344 119.59375 " fill-opacity="1" fill-rule="nonzero"/></g><g clip-path="url(#e7783ba22b)"><path fill="#ffffff" d="M 4823.777344 177.179688 L 4177.582031 177.179688 L 4177.582031 163.628906 L 4823.777344 163.628906 L 4823.777344 177.179688 " fill-opacity="1" fill-rule="nonzero"/></g><g clip-path="url(#234ffb6cee)"><path fill="#ffffff" d="M 4823.777344 234.765625 L 4177.582031 234.765625 L 4177.582031 221.214844 L 4823.777344 221.214844 L 4823.777344 234.765625 " fill-opacity="1" fill-rule="nonzero"/></g><g clip-path="url(#f0f1c84482)"><path fill="#ffffff" d="M 4823.777344 292.347656 L 4177.582031 292.347656 L 4177.582031 278.804688 L 4823.777344 278.804688 L 4823.777344 292.347656 " fill-opacity="1" fill-rule="nonzero"/></g><g clip-path="url(#647739047a)"><path fill="#ffffff" d="M 4823.777344 349.9375 L 4177.582031 349.9375 L 4177.582031 336.386719 L 4823.777344 336.386719 L 4823.777344 349.9375 " fill-opacity="1" fill-rule="nonzero"/></g><g clip-path="url(#bc657e8c65)"><path fill="#ffffff" d="M 4823.777344 407.519531 L 4177.582031 407.519531 L 4177.582031 393.972656 L 4823.777344 393.972656 L 4823.777344 407.519531 " fill-opacity="1" fill-rule="nonzero"/></g><g clip-path="url(#4c332e9c3f)"><path fill="#ffffff" d="M 4823.777344 465.105469 L 4177.582031 465.105469 L 4177.582031 451.554688 L 4823.777344 451.554688 L 4823.777344 465.105469 " fill-opacity="1" fill-rule="nonzero"/></g><g clip-path="url(#141b50c521)"><path fill="#ffffff" d="M 4823.777344 522.6875 L 4177.582031 522.6875 L 4177.582031 509.140625 L 4823.777344 509.140625 L 4823.777344 522.6875 " fill-opacity="1" fill-rule="nonzero"/></g><g clip-path="url(#61849252ee)"><path fill="#ffffff" d="M 5443.324219 4.421875 L 4797.125 4.421875 L 4797.125 -9.121094 L 5443.324219 -9.121094 L 5443.324219 4.421875 " fill-opacity="1" fill-rule="nonzero"/></g><g clip-path="url(#b067de86a1)"><path fill="#ffffff" d="M 5443.324219 62.011719 L 4797.125 62.011719 L 4797.125 48.460938 L 5443.324219 48.460938 L 5443.324219 62.011719 " fill-opacity="1" fill-rule="nonzero"/></g><g clip-path="url(#84648513d9)"><path fill="#ffffff" d="M 5443.324219 119.59375 L 4797.125 119.59375 L 4797.125 106.046875 L 5443.324219 106.046875 L 5443.324219 119.59375 " fill-opacity="1" fill-rule="nonzero"/></g><g clip-path="url(#22ee27dc8f)"><path fill="#ffffff" d="M 5443.324219 177.179688 L 4797.125 177.179688 L 4797.125 163.628906 L 5443.324219 163.628906 L 5443.324219 177.179688 " fill-opacity="1" fill-rule="nonzero"/></g><g clip-path="url(#a7f80f7d05)"><path fill="#ffffff" d="M 5443.324219 234.765625 L 4797.125 234.765625 L 4797.125 221.214844 L 5443.324219 221.214844 L 5443.324219 234.765625 " fill-opacity="1" fill-rule="nonzero"/></g><g clip-path="url(#9d5d339595)"><path fill="#ffffff" d="M 5443.324219 292.347656 L 4797.125 292.347656 L 4797.125 278.804688 L 5443.324219 278.804688 L 5443.324219 292.347656 " fill-opacity="1" fill-rule="nonzero"/></g><g clip-path="url(#6a255e1d9b)"><path fill="#ffffff" d="M 5443.324219 349.9375 L 4797.125 349.9375 L 4797.125 336.386719 L 5443.324219 336.386719 L 5443.324219 349.9375 " fill-opacity="1" fill-rule="nonzero"/></g><g clip-path="url(#14094bcd8d)"><path fill="#ffffff" d="M 5443.324219 407.519531 L 4797.125 407.519531 L 4797.125 393.972656 L 5443.324219 393.972656 L 5443.324219 407.519531 " fill-opacity="1" fill-rule="nonzero"/></g><g clip-path="url(#fd7cb9a7fd)"><path fill="#ffffff" d="M 5443.324219 465.105469 L 4797.125 465.105469 L 4797.125 451.554688 L 5443.324219 451.554688 L 5443.324219 465.105469 " fill-opacity="1" fill-rule="nonzero"/></g><g clip-path="url(#f17ce9df5d)"><path fill="#ffffff" d="M 5443.324219 522.6875 L 4797.125 522.6875 L 4797.125 509.140625 L 5443.324219 509.140625 L 5443.324219 522.6875 " fill-opacity="1" fill-rule="nonzero"/></g><g clip-path="url(#3b3169c83f)"><path fill="#ffffff" d="M 2279.792969 581.039062 L 1633.59375 581.039062 L 1633.59375 567.492188 L 2279.792969 567.492188 L 2279.792969 581.039062 " fill-opacity="1" fill-rule="nonzero"/></g><g clip-path="url(#3787c37d81)"><path fill="#ffffff" d="M 2279.792969 638.621094 L 1633.59375 638.621094 L 1633.59375 625.078125 L 2279.792969 625.078125 L 2279.792969 638.621094 " fill-opacity="1" fill-rule="nonzero"/></g><g clip-path="url(#6cfb008092)"><path fill="#ffffff" d="M 2279.792969 696.210938 L 1633.59375 696.210938 L 1633.59375 682.664062 L 2279.792969 682.664062 L 2279.792969 696.210938 " fill-opacity="1" fill-rule="nonzero"/></g><g clip-path="url(#5ddc55ff57)"><path fill="#ffffff" d="M 2279.792969 753.796875 L 1633.59375 753.796875 L 1633.59375 740.246094 L 2279.792969 740.246094 L 2279.792969 753.796875 " fill-opacity="1" fill-rule="nonzero"/></g><g clip-path="url(#e94b5308d0)"><path fill="#ffffff" d="M 2279.792969 811.378906 L 1633.59375 811.378906 L 1633.59375 797.832031 L 2279.792969 797.832031 L 2279.792969 811.378906 " fill-opacity="1" fill-rule="nonzero"/></g><g clip-path="url(#51fbcf3908)"><path fill="#ffffff" d="M 2279.792969 868.964844 L 1633.59375 868.964844 L 1633.59375 855.414062 L 2279.792969 855.414062 L 2279.792969 868.964844 " fill-opacity="1" fill-rule="nonzero"/></g><g clip-path="url(#11786cf787)"><path fill="#ffffff" d="M 2279.792969 926.546875 L 1633.59375 926.546875 L 1633.59375 913.003906 L 2279.792969 913.003906 L 2279.792969 926.546875 " fill-opacity="1" fill-rule="nonzero"/></g><g clip-path="url(#499cb3aeb4)"><path fill="#ffffff" d="M 2279.792969 984.136719 L 1633.59375 984.136719 L 1633.59375 970.585938 L 2279.792969 970.585938 L 2279.792969 984.136719 " fill-opacity="1" fill-rule="nonzero"/></g><g clip-path="url(#c6cb9fc6d1)"><path fill="#ffffff" d="M 2279.792969 1041.71875 L 1633.59375 1041.71875 L 1633.59375 1028.171875 L 2279.792969 1028.171875 L 2279.792969 1041.71875 " fill-opacity="1" fill-rule="nonzero"/></g><g clip-path="url(#8b16943c1a)"><path fill="#ffffff" d="M 2279.792969 1099.304688 L 1633.59375 1099.304688 L 1633.59375 1085.753906 L 2279.792969 1085.753906 L 2279.792969 1099.304688 " fill-opacity="1" fill-rule="nonzero"/></g><g clip-path="url(#6cad9d5d01)"><path fill="#ffffff" d="M 2279.792969 1156.886719 L 1633.59375 1156.886719 L 1633.59375 1143.339844 L 2279.792969 1143.339844 L 2279.792969 1156.886719 " fill-opacity="1" fill-rule="nonzero"/></g><g clip-path="url(#fe170b2bb1)"><path fill="#ffffff" d="M 2918.933594 581.039062 L 2272.734375 581.039062 L 2272.734375 567.492188 L 2918.933594 567.492188 L 2918.933594 581.039062 " fill-opacity="1" fill-rule="nonzero"/></g><g clip-path="url(#fca5088578)"><path fill="#ffffff" d="M 2918.933594 638.621094 L 2272.734375 638.621094 L 2272.734375 625.078125 L 2918.933594 625.078125 L 2918.933594 638.621094 " fill-opacity="1" fill-rule="nonzero"/></g><g clip-path="url(#094bed2f1f)"><path fill="#ffffff" d="M 2918.933594 696.210938 L 2272.734375 696.210938 L 2272.734375 682.664062 L 2918.933594 682.664062 L 2918.933594 696.210938 " fill-opacity="1" fill-rule="nonzero"/></g><g clip-path="url(#31cf2d295c)"><path fill="#ffffff" d="M 2918.933594 753.796875 L 2272.734375 753.796875 L 2272.734375 740.246094 L 2918.933594 740.246094 L 2918.933594 753.796875 " fill-opacity="1" fill-rule="nonzero"/></g><g clip-path="url(#10b6deb033)"><path fill="#ffffff" d="M 2918.933594 811.378906 L 2272.734375 811.378906 L 2272.734375 797.832031 L 2918.933594 797.832031 L 2918.933594 811.378906 " fill-opacity="1" fill-rule="nonzero"/></g><g clip-path="url(#c986480c03)"><path fill="#ffffff" d="M 2918.933594 868.964844 L 2272.734375 868.964844 L 2272.734375 855.414062 L 2918.933594 855.414062 L 2918.933594 868.964844 " fill-opacity="1" fill-rule="nonzero"/></g><g clip-path="url(#8636e07d71)"><path fill="#ffffff" d="M 2918.933594 926.546875 L 2272.734375 926.546875 L 2272.734375 913.003906 L 2918.933594 913.003906 L 2918.933594 926.546875 " fill-opacity="1" fill-rule="nonzero"/></g><g clip-path="url(#e227831364)"><path fill="#ffffff" d="M 2918.933594 984.136719 L 2272.734375 984.136719 L 2272.734375 970.585938 L 2918.933594 970.585938 L 2918.933594 984.136719 " fill-opacity="1" fill-rule="nonzero"/></g><g clip-path="url(#d88d02da5a)"><path fill="#ffffff" d="M 2918.933594 1041.71875 L 2272.734375 1041.71875 L 2272.734375 1028.171875 L 2918.933594 1028.171875 L 2918.933594 1041.71875 " fill-opacity="1" fill-rule="nonzero"/></g><g clip-path="url(#258c259b8f)"><path fill="#ffffff" d="M 2918.933594 1099.304688 L 2272.734375 1099.304688 L 2272.734375 1085.753906 L 2918.933594 1085.753906 L 2918.933594 1099.304688 " fill-opacity="1" fill-rule="nonzero"/></g><g clip-path="url(#2ba638eff9)"><path fill="#ffffff" d="M 2918.933594 1156.886719 L 2272.734375 1156.886719 L 2272.734375 1143.339844 L 2918.933594 1143.339844 L 2918.933594 1156.886719 " fill-opacity="1" fill-rule="nonzero"/></g><g clip-path="url(#1d4d8b0d73)"><path fill="#ffffff" d="M 3538.476562 581.039062 L 2892.28125 581.039062 L 2892.28125 567.492188 L 3538.476562 567.492188 L 3538.476562 581.039062 " fill-opacity="1" fill-rule="nonzero"/></g><g clip-path="url(#23bbdeb84b)"><path fill="#ffffff" d="M 3538.476562 638.621094 L 2892.28125 638.621094 L 2892.28125 625.078125 L 3538.476562 625.078125 L 3538.476562 638.621094 " fill-opacity="1" fill-rule="nonzero"/></g><g clip-path="url(#48d3577285)"><path fill="#ffffff" d="M 3538.476562 696.210938 L 2892.28125 696.210938 L 2892.28125 682.664062 L 3538.476562 682.664062 L 3538.476562 696.210938 " fill-opacity="1" fill-rule="nonzero"/></g><g clip-path="url(#d8219b3327)"><path fill="#ffffff" d="M 3538.476562 753.796875 L 2892.28125 753.796875 L 2892.28125 740.246094 L 3538.476562 740.246094 L 3538.476562 753.796875 " fill-opacity="1" fill-rule="nonzero"/></g><g clip-path="url(#6a59f7f58e)"><path fill="#ffffff" d="M 3538.476562 811.378906 L 2892.28125 811.378906 L 2892.28125 797.832031 L 3538.476562 797.832031 L 3538.476562 811.378906 " fill-opacity="1" fill-rule="nonzero"/></g><g clip-path="url(#94e84b3eb9)"><path fill="#ffffff" d="M 3538.476562 868.964844 L 2892.28125 868.964844 L 2892.28125 855.414062 L 3538.476562 855.414062 L 3538.476562 868.964844 " fill-opacity="1" fill-rule="nonzero"/></g><g clip-path="url(#452467ee73)"><path fill="#ffffff" d="M 3538.476562 926.546875 L 2892.28125 926.546875 L 2892.28125 913.003906 L 3538.476562 913.003906 L 3538.476562 926.546875 " fill-opacity="1" fill-rule="nonzero"/></g><g clip-path="url(#6c94ca6713)"><path fill="#ffffff" d="M 3538.476562 984.136719 L 2892.28125 984.136719 L 2892.28125 970.585938 L 3538.476562 970.585938 L 3538.476562 984.136719 " fill-opacity="1" fill-rule="nonzero"/></g><g clip-path="url(#a828c099c2)"><path fill="#ffffff" d="M 3538.476562 1041.71875 L 2892.28125 1041.71875 L 2892.28125 1028.171875 L 3538.476562 1028.171875 L 3538.476562 1041.71875 " fill-opacity="1" fill-rule="nonzero"/></g><g clip-path="url(#f6d641c307)"><path fill="#ffffff" d="M 3538.476562 1099.304688 L 2892.28125 1099.304688 L 2892.28125 1085.753906 L 3538.476562 1085.753906 L 3538.476562 1099.304688 " fill-opacity="1" fill-rule="nonzero"/></g><g clip-path="url(#9b8a196c92)"><path fill="#ffffff" d="M 3538.476562 1156.886719 L 2892.28125 1156.886719 L 2892.28125 1143.339844 L 3538.476562 1143.339844 L 3538.476562 1156.886719 " fill-opacity="1" fill-rule="nonzero"/></g><g clip-path="url(#f06d3c59c4)"><path fill="#ffffff" d="M 386.957031 581.039062 L -259.242188 581.039062 L -259.242188 567.492188 L 386.957031 567.492188 L 386.957031 581.039062 " fill-opacity="1" fill-rule="nonzero"/></g><g clip-path="url(#b95e8f7038)"><path fill="#ffffff" d="M 386.957031 638.621094 L -259.242188 638.621094 L -259.242188 625.078125 L 386.957031 625.078125 L 386.957031 638.621094 " fill-opacity="1" fill-rule="nonzero"/></g><g clip-path="url(#bbd3b51b1e)"><path fill="#ffffff" d="M 386.957031 696.210938 L -259.242188 696.210938 L -259.242188 682.664062 L 386.957031 682.664062 L 386.957031 696.210938 " fill-opacity="1" fill-rule="nonzero"/></g><g clip-path="url(#c2d8f0cf60)"><path fill="#ffffff" d="M 386.957031 753.796875 L -259.242188 753.796875 L -259.242188 740.246094 L 386.957031 740.246094 L 386.957031 753.796875 " fill-opacity="1" fill-rule="nonzero"/></g><g clip-path="url(#a5e12b9a7c)"><path fill="#ffffff" d="M 386.957031 811.378906 L -259.242188 811.378906 L -259.242188 797.832031 L 386.957031 797.832031 L 386.957031 811.378906 " fill-opacity="1" fill-rule="nonzero"/></g><g clip-path="url(#c2dbee1d6e)"><path fill="#ffffff" d="M 386.957031 868.964844 L -259.242188 868.964844 L -259.242188 855.414062 L 386.957031 855.414062 L 386.957031 868.964844 " fill-opacity="1" fill-rule="nonzero"/></g><g clip-path="url(#60b6c71caa)"><path fill="#ffffff" d="M 386.957031 926.546875 L -259.242188 926.546875 L -259.242188 913.003906 L 386.957031 913.003906 L 386.957031 926.546875 " fill-opacity="1" fill-rule="nonzero"/></g><g clip-path="url(#73349915aa)"><path fill="#ffffff" d="M 386.957031 984.136719 L -259.242188 984.136719 L -259.242188 970.585938 L 386.957031 970.585938 L 386.957031 984.136719 " fill-opacity="1" fill-rule="nonzero"/></g><g clip-path="url(#6f93e214b1)"><path fill="#ffffff" d="M 386.957031 1041.71875 L -259.242188 1041.71875 L -259.242188 1028.171875 L 386.957031 1028.171875 L 386.957031 1041.71875 " fill-opacity="1" fill-rule="nonzero"/></g><g clip-path="url(#990dee6f04)"><path fill="#ffffff" d="M 386.957031 1099.304688 L -259.242188 1099.304688 L -259.242188 1085.753906 L 386.957031 1085.753906 L 386.957031 1099.304688 " fill-opacity="1" fill-rule="nonzero"/></g><g clip-path="url(#0a0de96f57)"><path fill="#ffffff" d="M 386.957031 1156.886719 L -259.242188 1156.886719 L -259.242188 1143.339844 L 386.957031 1143.339844 L 386.957031 1156.886719 " fill-opacity="1" fill-rule="nonzero"/></g><g clip-path="url(#79ac6856a3)"><path fill="#ffffff" d="M 1026.097656 581.039062 L 379.898438 581.039062 L 379.898438 567.492188 L 1026.097656 567.492188 L 1026.097656 581.039062 " fill-opacity="1" fill-rule="nonzero"/></g><g clip-path="url(#9986392fca)"><path fill="#ffffff" d="M 1026.097656 638.621094 L 379.898438 638.621094 L 379.898438 625.078125 L 1026.097656 625.078125 L 1026.097656 638.621094 " fill-opacity="1" fill-rule="nonzero"/></g><g clip-path="url(#82c59e69c3)"><path fill="#ffffff" d="M 1026.097656 696.210938 L 379.898438 696.210938 L 379.898438 682.664062 L 1026.097656 682.664062 L 1026.097656 696.210938 " fill-opacity="1" fill-rule="nonzero"/></g><g clip-path="url(#0df8851bc6)"><path fill="#ffffff" d="M 1026.097656 753.796875 L 379.898438 753.796875 L 379.898438 740.246094 L 1026.097656 740.246094 L 1026.097656 753.796875 " fill-opacity="1" fill-rule="nonzero"/></g><g clip-path="url(#2aad783467)"><path fill="#ffffff" d="M 1026.097656 811.378906 L 379.898438 811.378906 L 379.898438 797.832031 L 1026.097656 797.832031 L 1026.097656 811.378906 " fill-opacity="1" fill-rule="nonzero"/></g><g clip-path="url(#598570fcb5)"><path fill="#ffffff" d="M 1026.097656 868.964844 L 379.898438 868.964844 L 379.898438 855.414062 L 1026.097656 855.414062 L 1026.097656 868.964844 " fill-opacity="1" fill-rule="nonzero"/></g><g clip-path="url(#b77dcadc5c)"><path fill="#ffffff" d="M 1026.097656 926.546875 L 379.898438 926.546875 L 379.898438 913.003906 L 1026.097656 913.003906 L 1026.097656 926.546875 " fill-opacity="1" fill-rule="nonzero"/></g><g clip-path="url(#99a9bbe33d)"><path fill="#ffffff" d="M 1026.097656 984.136719 L 379.898438 984.136719 L 379.898438 970.585938 L 1026.097656 970.585938 L 1026.097656 984.136719 " fill-opacity="1" fill-rule="nonzero"/></g><g clip-path="url(#620182dbb6)"><path fill="#ffffff" d="M 1026.097656 1041.71875 L 379.898438 1041.71875 L 379.898438 1028.171875 L 1026.097656 1028.171875 L 1026.097656 1041.71875 " fill-opacity="1" fill-rule="nonzero"/></g><g clip-path="url(#18bf57464b)"><path fill="#ffffff" d="M 1026.097656 1099.304688 L 379.898438 1099.304688 L 379.898438 1085.753906 L 1026.097656 1085.753906 L 1026.097656 1099.304688 " fill-opacity="1" fill-rule="nonzero"/></g><g clip-path="url(#9a0323de77)"><path fill="#ffffff" d="M 1026.097656 1156.886719 L 379.898438 1156.886719 L 379.898438 1143.339844 L 1026.097656 1143.339844 L 1026.097656 1156.886719 " fill-opacity="1" fill-rule="nonzero"/></g><g clip-path="url(#1112786775)"><path fill="#ffffff" d="M 1645.640625 581.039062 L 999.441406 581.039062 L 999.441406 567.492188 L 1645.640625 567.492188 L 1645.640625 581.039062 " fill-opacity="1" fill-rule="nonzero"/></g><g clip-path="url(#651f69674c)"><path fill="#ffffff" d="M 1645.640625 638.621094 L 999.441406 638.621094 L 999.441406 625.078125 L 1645.640625 625.078125 L 1645.640625 638.621094 " fill-opacity="1" fill-rule="nonzero"/></g><g clip-path="url(#d405db926f)"><path fill="#ffffff" d="M 1645.640625 696.210938 L 999.441406 696.210938 L 999.441406 682.664062 L 1645.640625 682.664062 L 1645.640625 696.210938 " fill-opacity="1" fill-rule="nonzero"/></g><g clip-path="url(#09695dd2a4)"><path fill="#ffffff" d="M 1645.640625 753.796875 L 999.441406 753.796875 L 999.441406 740.246094 L 1645.640625 740.246094 L 1645.640625 753.796875 " fill-opacity="1" fill-rule="nonzero"/></g><g clip-path="url(#198e77f4c1)"><path fill="#ffffff" d="M 1645.640625 811.378906 L 999.441406 811.378906 L 999.441406 797.832031 L 1645.640625 797.832031 L 1645.640625 811.378906 " fill-opacity="1" fill-rule="nonzero"/></g><g clip-path="url(#fe8835b59f)"><path fill="#ffffff" d="M 1645.640625 868.964844 L 999.441406 868.964844 L 999.441406 855.414062 L 1645.640625 855.414062 L 1645.640625 868.964844 " fill-opacity="1" fill-rule="nonzero"/></g><g clip-path="url(#eb4de5b224)"><path fill="#ffffff" d="M 1645.640625 926.546875 L 999.441406 926.546875 L 999.441406 913.003906 L 1645.640625 913.003906 L 1645.640625 926.546875 " fill-opacity="1" fill-rule="nonzero"/></g><g clip-path="url(#91b7bd3f91)"><path fill="#ffffff" d="M 1645.640625 984.136719 L 999.441406 984.136719 L 999.441406 970.585938 L 1645.640625 970.585938 L 1645.640625 984.136719 " fill-opacity="1" fill-rule="nonzero"/></g><g clip-path="url(#e72cc42f1c)"><path fill="#ffffff" d="M 1645.640625 1041.71875 L 999.441406 1041.71875 L 999.441406 1028.171875 L 1645.640625 1028.171875 L 1645.640625 1041.71875 " fill-opacity="1" fill-rule="nonzero"/></g><g clip-path="url(#cdf61c7c3f)"><path fill="#ffffff" d="M 1645.640625 1099.304688 L 999.441406 1099.304688 L 999.441406 1085.753906 L 1645.640625 1085.753906 L 1645.640625 1099.304688 " fill-opacity="1" fill-rule="nonzero"/></g><g clip-path="url(#8d0786cb01)"><path fill="#ffffff" d="M 1645.640625 1156.886719 L 999.441406 1156.886719 L 999.441406 1143.339844 L 1645.640625 1143.339844 L 1645.640625 1156.886719 " fill-opacity="1" fill-rule="nonzero"/></g><g clip-path="url(#948bce8ffa)"><path fill="#ffffff" d="M 4184.636719 581.039062 L 3538.4375 581.039062 L 3538.4375 567.492188 L 4184.636719 567.492188 L 4184.636719 581.039062 " fill-opacity="1" fill-rule="nonzero"/></g><g clip-path="url(#93eb2373db)"><path fill="#ffffff" d="M 4184.636719 638.621094 L 3538.4375 638.621094 L 3538.4375 625.078125 L 4184.636719 625.078125 L 4184.636719 638.621094 " fill-opacity="1" fill-rule="nonzero"/></g><g clip-path="url(#f40740be78)"><path fill="#ffffff" d="M 4184.636719 696.210938 L 3538.4375 696.210938 L 3538.4375 682.664062 L 4184.636719 682.664062 L 4184.636719 696.210938 " fill-opacity="1" fill-rule="nonzero"/></g><g clip-path="url(#7478d544c8)"><path fill="#ffffff" d="M 4184.636719 753.796875 L 3538.4375 753.796875 L 3538.4375 740.246094 L 4184.636719 740.246094 L 4184.636719 753.796875 " fill-opacity="1" fill-rule="nonzero"/></g><g clip-path="url(#54f7fe424c)"><path fill="#ffffff" d="M 4184.636719 811.378906 L 3538.4375 811.378906 L 3538.4375 797.832031 L 4184.636719 797.832031 L 4184.636719 811.378906 " fill-opacity="1" fill-rule="nonzero"/></g><g clip-path="url(#ad5287bf94)"><path fill="#ffffff" d="M 4184.636719 868.964844 L 3538.4375 868.964844 L 3538.4375 855.414062 L 4184.636719 855.414062 L 4184.636719 868.964844 " fill-opacity="1" fill-rule="nonzero"/></g><g clip-path="url(#54863129c3)"><path fill="#ffffff" d="M 4184.636719 926.546875 L 3538.4375 926.546875 L 3538.4375 913.003906 L 4184.636719 913.003906 L 4184.636719 926.546875 " fill-opacity="1" fill-rule="nonzero"/></g><g clip-path="url(#ef8424d582)"><path fill="#ffffff" d="M 4184.636719 984.136719 L 3538.4375 984.136719 L 3538.4375 970.585938 L 4184.636719 970.585938 L 4184.636719 984.136719 " fill-opacity="1" fill-rule="nonzero"/></g><g clip-path="url(#fd2fd377a3)"><path fill="#ffffff" d="M 4184.636719 1041.71875 L 3538.4375 1041.71875 L 3538.4375 1028.171875 L 4184.636719 1028.171875 L 4184.636719 1041.71875 " fill-opacity="1" fill-rule="nonzero"/></g><g clip-path="url(#a0f5820dbb)"><path fill="#ffffff" d="M 4184.636719 1099.304688 L 3538.4375 1099.304688 L 3538.4375 1085.753906 L 4184.636719 1085.753906 L 4184.636719 1099.304688 " fill-opacity="1" fill-rule="nonzero"/></g><g clip-path="url(#a1f63c82e7)"><path fill="#ffffff" d="M 4184.636719 1156.886719 L 3538.4375 1156.886719 L 3538.4375 1143.339844 L 4184.636719 1143.339844 L 4184.636719 1156.886719 " fill-opacity="1" fill-rule="nonzero"/></g><g clip-path="url(#91f772f6c0)"><path fill="#ffffff" d="M 4823.777344 581.039062 L 4177.582031 581.039062 L 4177.582031 567.492188 L 4823.777344 567.492188 L 4823.777344 581.039062 " fill-opacity="1" fill-rule="nonzero"/></g><g clip-path="url(#52fe85b838)"><path fill="#ffffff" d="M 4823.777344 638.621094 L 4177.582031 638.621094 L 4177.582031 625.078125 L 4823.777344 625.078125 L 4823.777344 638.621094 " fill-opacity="1" fill-rule="nonzero"/></g><g clip-path="url(#0ff84dbfd6)"><path fill="#ffffff" d="M 4823.777344 696.210938 L 4177.582031 696.210938 L 4177.582031 682.664062 L 4823.777344 682.664062 L 4823.777344 696.210938 " fill-opacity="1" fill-rule="nonzero"/></g><g clip-path="url(#fe17c1a7e5)"><path fill="#ffffff" d="M 4823.777344 753.796875 L 4177.582031 753.796875 L 4177.582031 740.246094 L 4823.777344 740.246094 L 4823.777344 753.796875 " fill-opacity="1" fill-rule="nonzero"/></g><g clip-path="url(#2f5ec77c8c)"><path fill="#ffffff" d="M 4823.777344 811.378906 L 4177.582031 811.378906 L 4177.582031 797.832031 L 4823.777344 797.832031 L 4823.777344 811.378906 " fill-opacity="1" fill-rule="nonzero"/></g><g clip-path="url(#95d1bc7610)"><path fill="#ffffff" d="M 4823.777344 868.964844 L 4177.582031 868.964844 L 4177.582031 855.414062 L 4823.777344 855.414062 L 4823.777344 868.964844 " fill-opacity="1" fill-rule="nonzero"/></g><g clip-path="url(#2f5fa277d9)"><path fill="#ffffff" d="M 4823.777344 926.546875 L 4177.582031 926.546875 L 4177.582031 913.003906 L 4823.777344 913.003906 L 4823.777344 926.546875 " fill-opacity="1" fill-rule="nonzero"/></g><g clip-path="url(#52a39d0415)"><path fill="#ffffff" d="M 4823.777344 984.136719 L 4177.582031 984.136719 L 4177.582031 970.585938 L 4823.777344 970.585938 L 4823.777344 984.136719 " fill-opacity="1" fill-rule="nonzero"/></g><g clip-path="url(#be54e57967)"><path fill="#ffffff" d="M 4823.777344 1041.71875 L 4177.582031 1041.71875 L 4177.582031 1028.171875 L 4823.777344 1028.171875 L 4823.777344 1041.71875 " fill-opacity="1" fill-rule="nonzero"/></g><g clip-path="url(#5cc7811057)"><path fill="#ffffff" d="M 4823.777344 1099.304688 L 4177.582031 1099.304688 L 4177.582031 1085.753906 L 4823.777344 1085.753906 L 4823.777344 1099.304688 " fill-opacity="1" fill-rule="nonzero"/></g><g clip-path="url(#05a7da7488)"><path fill="#ffffff" d="M 4823.777344 1156.886719 L 4177.582031 1156.886719 L 4177.582031 1143.339844 L 4823.777344 1143.339844 L 4823.777344 1156.886719 " fill-opacity="1" fill-rule="nonzero"/></g><g clip-path="url(#efd1c85a71)"><path fill="#ffffff" d="M 5443.324219 581.039062 L 4797.125 581.039062 L 4797.125 567.492188 L 5443.324219 567.492188 L 5443.324219 581.039062 " fill-opacity="1" fill-rule="nonzero"/></g><g clip-path="url(#34c0409559)"><path fill="#ffffff" d="M 5443.324219 638.621094 L 4797.125 638.621094 L 4797.125 625.078125 L 5443.324219 625.078125 L 5443.324219 638.621094 " fill-opacity="1" fill-rule="nonzero"/></g><g clip-path="url(#6949464fc5)"><path fill="#ffffff" d="M 5443.324219 696.210938 L 4797.125 696.210938 L 4797.125 682.664062 L 5443.324219 682.664062 L 5443.324219 696.210938 " fill-opacity="1" fill-rule="nonzero"/></g><g clip-path="url(#9ee66c1026)"><path fill="#ffffff" d="M 5443.324219 753.796875 L 4797.125 753.796875 L 4797.125 740.246094 L 5443.324219 740.246094 L 5443.324219 753.796875 " fill-opacity="1" fill-rule="nonzero"/></g><g clip-path="url(#8693e20173)"><path fill="#ffffff" d="M 5443.324219 811.378906 L 4797.125 811.378906 L 4797.125 797.832031 L 5443.324219 797.832031 L 5443.324219 811.378906 " fill-opacity="1" fill-rule="nonzero"/></g><g clip-path="url(#c0a5484fd4)"><path fill="#ffffff" d="M 5443.324219 868.964844 L 4797.125 868.964844 L 4797.125 855.414062 L 5443.324219 855.414062 L 5443.324219 868.964844 " fill-opacity="1" fill-rule="nonzero"/></g><g clip-path="url(#51433b0f69)"><path fill="#ffffff" d="M 5443.324219 926.546875 L 4797.125 926.546875 L 4797.125 913.003906 L 5443.324219 913.003906 L 5443.324219 926.546875 " fill-opacity="1" fill-rule="nonzero"/></g><g clip-path="url(#23ea97d2ae)"><path fill="#ffffff" d="M 5443.324219 984.136719 L 4797.125 984.136719 L 4797.125 970.585938 L 5443.324219 970.585938 L 5443.324219 984.136719 " fill-opacity="1" fill-rule="nonzero"/></g><g clip-path="url(#5b80bf9e5e)"><path fill="#ffffff" d="M 5443.324219 1041.71875 L 4797.125 1041.71875 L 4797.125 1028.171875 L 5443.324219 1028.171875 L 5443.324219 1041.71875 " fill-opacity="1" fill-rule="nonzero"/></g><g clip-path="url(#69eb419566)"><path fill="#ffffff" d="M 5443.324219 1099.304688 L 4797.125 1099.304688 L 4797.125 1085.753906 L 5443.324219 1085.753906 L 5443.324219 1099.304688 " fill-opacity="1" fill-rule="nonzero"/></g><g clip-path="url(#de3987d06a)"><path fill="#ffffff" d="M 5443.324219 1156.886719 L 4797.125 1156.886719 L 4797.125 1143.339844 L 5443.324219 1143.339844 L 5443.324219 1156.886719 " fill-opacity="1" fill-rule="nonzero"/></g><g clip-path="url(#ac5d1ab892)"><path fill="#204295" d="M 4072.085938 410.414062 L 4072.085938 1197.609375 L 1112.226562 1197.609375 L 1112.226562 410.414062 Z M 4072.085938 410.414062 " fill-opacity="1" fill-rule="nonzero"/></g><g clip-path="url(#dec8945598)"><path fill="#0c5bad" d="M 4072.085938 1192.648438 L 4072.085938 1979.84375 L 1112.226562 1979.84375 L 1112.226562 1192.648438 Z M 4072.085938 1192.648438 " fill-opacity="1" fill-rule="nonzero"/></g><g fill="#ffffff" fill-opacity="1"><g transform="translate(1842.746347, 1007.795369)"><g><path d="M 91.710938 -295.261719 L 234.121094 0 L 248.289062 0 L 365.351562 -332.542969 C 373.550781 -357.148438 391.445312 -357.894531 418.289062 -357.894531 L 418.289062 -367.585938 L 319.867188 -367.585938 L 319.867188 -357.894531 C 342.980469 -357.894531 363.113281 -357.148438 355.65625 -337.015625 L 268.421875 -101.402344 L 161.796875 -321.359375 C 149.121094 -347.453125 164.035156 -357.894531 196.097656 -357.894531 L 196.097656 -367.585938 L 7.457031 -367.585938 L 7.457031 -357.894531 C 45.480469 -357.894531 66.359375 -346.710938 91.710938 -295.261719 Z M 91.710938 -295.261719 "/></g></g></g><g fill="#ffffff" fill-opacity="1"><g transform="translate(2268.449501, 1007.795369)"><g><path d="M 29.824219 -187.148438 C 29.824219 -67.851562 97.675781 8.949219 219.957031 8.949219 C 336.269531 8.949219 410.085938 -67.851562 410.085938 -187.148438 C 410.085938 -297.5 344.472656 -376.535156 219.957031 -376.535156 C 102.148438 -376.535156 29.824219 -297.5 29.824219 -187.148438 Z M 212.5 -366.839844 C 294.515625 -366.839844 328.070312 -263.945312 328.070312 -179.691406 C 328.070312 -95.4375 298.246094 -0.746094 227.410156 -0.746094 C 145.394531 -0.746094 111.839844 -112.585938 111.839844 -194.605469 C 111.839844 -276.621094 141.667969 -366.839844 212.5 -366.839844 Z M 212.5 -366.839844 "/></g></g></g><g fill="#ffffff" fill-opacity="1"><g transform="translate(2708.317729, 1007.795369)"><g><path d="M 14.914062 -357.894531 L 70.085938 -357.894531 L 70.085938 -79.78125 C 70.085938 -16.402344 90.964844 9.691406 157.324219 9.691406 C 217.71875 9.691406 237.851562 -35.789062 237.851562 -72.324219 L 228.15625 -72.324219 C 228.15625 -46.972656 214.734375 -11.183594 181.183594 -11.183594 C 150.613281 -11.183594 144.648438 -32.808594 144.648438 -72.324219 L 144.648438 -357.894531 L 224.429688 -357.894531 L 224.429688 -367.585938 L 144.648438 -367.585938 L 144.648438 -496.578125 L 134.957031 -496.578125 C 125.261719 -440.65625 95.4375 -378.023438 14.914062 -367.585938 Z M 14.914062 -357.894531 "/></g></g></g><g fill="#ffffff" fill-opacity="1"><g transform="translate(2946.144833, 1007.795369)"><g><path d="M 219.210938 8.949219 C 337.015625 8.949219 378.769531 -76.796875 381.007812 -163.289062 L 371.316406 -163.289062 C 371.316406 -125.261719 351.183594 -32.0625 248.289062 -32.0625 C 150.613281 -32.0625 104.386719 -107.367188 104.386719 -211.753906 C 104.386719 -218.464844 104.386719 -225.175781 105.132812 -231.886719 L 371.316406 -231.886719 C 371.316406 -310.921875 318.375 -376.535156 228.15625 -376.535156 C 103.640625 -376.535156 29.824219 -280.351562 29.824219 -181.929688 C 29.824219 -71.578125 93.945312 8.949219 219.210938 8.949219 Z M 106.621094 -241.578125 C 116.316406 -313.902344 161.050781 -361.621094 220.699219 -361.621094 C 298.992188 -361.621094 308.683594 -296.007812 308.683594 -241.578125 Z M 106.621094 -241.578125 "/></g></g></g><g fill="#ffffff" fill-opacity="1"><g transform="translate(1858.751389, 1814.091588)"><g><path d="M 91.710938 -295.261719 L 234.121094 0 L 248.289062 0 L 365.351562 -332.542969 C 373.550781 -357.148438 391.445312 -357.894531 418.289062 -357.894531 L 418.289062 -367.585938 L 319.867188 -367.585938 L 319.867188 -357.894531 C 342.980469 -357.894531 363.113281 -357.148438 355.65625 -337.015625 L 268.421875 -101.402344 L 161.796875 -321.359375 C 149.121094 -347.453125 164.035156 -357.894531 196.097656 -357.894531 L 196.097656 -367.585938 L 7.457031 -367.585938 L 7.457031 -357.894531 C 45.480469 -357.894531 66.359375 -346.710938 91.710938 -295.261719 Z M 91.710938 -295.261719 "/></g></g></g><g fill="#ffffff" fill-opacity="1"><g transform="translate(2284.454543, 1814.091588)"><g><path d="M 29.824219 -187.148438 C 29.824219 -67.851562 97.675781 8.949219 219.957031 8.949219 C 336.269531 8.949219 410.085938 -67.851562 410.085938 -187.148438 C 410.085938 -297.5 344.472656 -376.535156 219.957031 -376.535156 C 102.148438 -376.535156 29.824219 -297.5 29.824219 -187.148438 Z M 212.5 -366.839844 C 294.515625 -366.839844 328.070312 -263.945312 328.070312 -179.691406 C 328.070312 -95.4375 298.246094 -0.746094 227.410156 -0.746094 C 145.394531 -0.746094 111.839844 -112.585938 111.839844 -194.605469 C 111.839844 -276.621094 141.667969 -366.839844 212.5 -366.839844 Z M 212.5 -366.839844 "/></g></g></g><g fill="#ffffff" fill-opacity="1"><g transform="translate(2724.322771, 1814.091588)"><g><path d="M 22.367188 -331.050781 C 61.140625 -331.050781 84.253906 -319.867188 84.253906 -290.042969 L 84.253906 -49.957031 C 84.253906 -15.65625 67.105469 -9.691406 31.316406 -9.691406 L 31.316406 0 L 211.753906 0 L 211.753906 -9.691406 C 177.457031 -9.691406 158.816406 -14.914062 158.816406 -49.957031 L 158.816406 -367.585938 L 22.367188 -340.746094 Z M 121.535156 -435.4375 C 143.902344 -435.4375 162.542969 -453.332031 162.542969 -475.699219 C 162.542969 -498.070312 143.902344 -515.964844 121.535156 -515.964844 C 99.167969 -515.964844 81.273438 -498.070312 81.273438 -475.699219 C 81.273438 -453.332031 99.167969 -435.4375 121.535156 -435.4375 Z M 121.535156 -435.4375 "/></g></g></g><g fill="#ffffff" fill-opacity="1"><g transform="translate(2943.511373, 1814.091588)"><g><path d="M 7.457031 -9.691406 L 7.457031 0 L 110.351562 0 L 110.351562 -9.691406 C 84.253906 -9.691406 73.816406 -18.640625 85 -38.027344 L 172.234375 -156.578125 L 237.105469 -40.261719 C 248.289062 -17.894531 235.613281 -9.691406 204.296875 -9.691406 L 204.296875 0 L 379.515625 0 L 379.515625 -9.691406 C 342.234375 -9.691406 327.324219 -17.894531 314.648438 -40.261719 L 216.226562 -215.480469 L 307.9375 -340.746094 C 319.121094 -357.148438 339.253906 -357.894531 365.351562 -357.894531 L 365.351562 -367.585938 L 267.675781 -367.585938 L 267.675781 -357.894531 C 291.535156 -357.894531 306.445312 -352.675781 296.753906 -339.253906 L 211.007812 -224.429688 L 150.613281 -333.289062 C 140.921875 -353.421875 154.339844 -357.894531 180.4375 -357.894531 L 180.4375 -367.585938 L 20.132812 -367.585938 L 20.132812 -357.894531 C 47.71875 -357.894531 61.886719 -353.421875 73.816406 -332.542969 L 167.015625 -165.527344 L 74.5625 -41.007812 C 60.394531 -18.640625 34.296875 -9.691406 7.457031 -9.691406 Z M 7.457031 -9.691406 "/></g></g></g><g clip-path="url(#643c533ea4)"><path fill="#204295" d="M 2241.933594 785.417969 L 2943.011719 785.417969 L 2943.011719 942.019531 L 2241.933594 942.019531 Z M 2241.933594 785.417969 " fill-opacity="1" fill-rule="nonzero"/></g><g fill="#ffffff" fill-opacity="1"><g transform="translate(2465.236528, 890.221908)"><g><path d="M 53.308594 -47.683594 L 53.308594 -57.921875 L 1.59375 -57.921875 L 1.59375 -47.683594 L 20.902344 -47.683594 L 20.902344 0 L 34 0 L 34 -47.683594 Z M 53.308594 -47.683594 "/></g></g></g><g fill="#ffffff" fill-opacity="1"><g transform="translate(2547.899185, 890.221908)"><g><path d="M 33.496094 -59.097656 C 15.53125 -59.097656 4.367188 -47.347656 4.367188 -28.960938 C 4.367188 -10.660156 15.53125 1.175781 33.496094 1.175781 C 51.375 1.175781 62.539062 -10.660156 62.539062 -28.960938 C 62.539062 -47.347656 51.375 -59.097656 33.496094 -59.097656 Z M 33.496094 -8.5625 C 23.839844 -8.5625 17.964844 -16.035156 17.964844 -28.960938 C 17.964844 -41.972656 23.839844 -49.359375 33.496094 -49.359375 C 43.066406 -49.359375 48.941406 -41.972656 48.941406 -28.960938 C 48.941406 -16.035156 43.066406 -8.5625 33.496094 -8.5625 Z M 33.496094 -8.5625 "/></g></g></g><g fill="#ffffff" fill-opacity="1"><g transform="translate(2642.978354, 890.221908)"><g><path d="M 60.023438 0 L 60.023438 -57.921875 L 46.925781 -57.921875 L 46.925781 -32.152344 C 46.925781 -27.871094 47.011719 -21.324219 47.347656 -15.277344 L 24.007812 -57.921875 L 7.136719 -57.921875 L 7.136719 0 L 20.316406 0 L 20.316406 -25.183594 C 20.316406 -29.382812 20.230469 -35.34375 19.8125 -41.46875 L 42.476562 0 Z M 60.023438 0 "/></g></g></g><g clip-path="url(#5070d34306)"><path fill="#0c5bad" d="M 2305.058594 1591.710938 L 2942.402344 1591.710938 L 2942.402344 1748.316406 L 2305.058594 1748.316406 Z M 2305.058594 1591.710938 " fill-opacity="1" fill-rule="nonzero"/></g><g fill="#ffffff" fill-opacity="1"><g transform="translate(2465.236528, 1696.518356)"><g><path d="M 53.308594 -47.683594 L 53.308594 -57.921875 L 1.59375 -57.921875 L 1.59375 -47.683594 L 20.902344 -47.683594 L 20.902344 0 L 34 0 L 34 -47.683594 Z M 53.308594 -47.683594 "/></g></g></g><g fill="#ffffff" fill-opacity="1"><g transform="translate(2547.899185, 1696.518356)"><g><path d="M 33.496094 -59.097656 C 15.53125 -59.097656 4.367188 -47.347656 4.367188 -28.960938 C 4.367188 -10.660156 15.53125 1.175781 33.496094 1.175781 C 51.375 1.175781 62.539062 -10.660156 62.539062 -28.960938 C 62.539062 -47.347656 51.375 -59.097656 33.496094 -59.097656 Z M 33.496094 -8.5625 C 23.839844 -8.5625 17.964844 -16.035156 17.964844 -28.960938 C 17.964844 -41.972656 23.839844 -49.359375 33.496094 -49.359375 C 43.066406 -49.359375 48.941406 -41.972656 48.941406 -28.960938 C 48.941406 -16.035156 43.066406 -8.5625 33.496094 -8.5625 Z M 33.496094 -8.5625 "/></g></g></g><g fill="#ffffff" fill-opacity="1"><g transform="translate(2642.978354, 1696.518356)"><g><path d="M 60.023438 0 L 60.023438 -57.921875 L 46.925781 -57.921875 L 46.925781 -32.152344 C 46.925781 -27.871094 47.011719 -21.324219 47.347656 -15.277344 L 24.007812 -57.921875 L 7.136719 -57.921875 L 7.136719 0 L 20.316406 0 L 20.316406 -25.183594 C 20.316406 -29.382812 20.230469 -35.34375 19.8125 -41.46875 L 42.476562 0 Z M 60.023438 0 "/></g></g></g></svg>